<svg width="1400" height="550" fill="none" xmlns="http://www.w3.org/2000/svg"><g clip-path="url(#a)"><path fill="#FFFAEE" d="M503.388 611.692V-89.389H-17.999v701.081z"/><path d="M487.051 388.804v80.318c-44.359 0-80.318-35.96-80.318-80.318 0-44.359 35.959-80.318 80.318-80.318v80.318Z" fill="#FFC1C4"/><path fill="#fff" d="M485.689-21.323h17.697V805h-17.697z"/><circle cx="231" cy="119" r="282" fill="#FF4693"/><circle cx="71.796" cy="392.771" r="81.679" fill="#F4CD61"/><path fill="#3DA376" d="M485.689 525.928v-66.705H-.303v66.705z"/><path fill="#F4CD61" d="M485.689 549.071v-23.142H-.303v23.142z"/><path fill="#D7757A" d="M485.689 461.946v-23.142H-.303v23.142z"/><path d="M299.687 494.032h39.898M325.621 480.067l13.964 13.964-13.964 13.965" stroke="#fff" stroke-width="3.995" stroke-linecap="round" stroke-linejoin="round"/><path d="M172.818 485.519c-.171-4.477-3.336-6.445-7.5-6.445-3.707 0-7.386 1.825-7.386 5.961 0 3.735 3.28 4.676 6.531 5.389 3.251.713 6.502 1.198 6.502 3.993 0 2.937-2.709 3.707-5.162 3.707-3.08 0-5.932-1.483-5.932-4.905h-2.566c0 4.962 3.85 7.187 8.412 7.187 3.708 0 7.957-1.74 7.957-6.075 0-3.992-3.251-5.133-6.502-5.874-3.28-.742-6.531-1.112-6.531-3.622 0-2.652 2.282-3.479 4.563-3.479 2.795 0 4.734 1.255 5.048 4.163h2.566Zm3.464 14.402h2.424v-8.327c0-2.652 1.425-4.62 4.363-4.62 1.853 0 2.994 1.169 2.994 2.966v9.981h2.424v-9.696c0-3.166-1.198-5.39-5.076-5.39-1.768 0-3.85.741-4.648 2.51h-.057v-7.786h-2.424v20.362Zm14.762-7.358c0 4.306 2.481 7.7 7.158 7.7 4.677 0 7.158-3.394 7.158-7.7 0-4.334-2.481-7.728-7.158-7.728-4.677 0-7.158 3.394-7.158 7.728Zm2.567 0c0-3.593 2.053-5.589 4.591-5.589 2.538 0 4.592 1.996 4.592 5.589 0 3.565-2.054 5.561-4.592 5.561s-4.591-1.996-4.591-5.561Zm25.815-.142c0 2.88-1.112 5.703-4.421 5.703-3.336 0-4.648-2.68-4.648-5.589 0-2.766 1.255-5.561 4.506-5.561 3.137 0 4.563 2.68 4.563 5.447Zm-11.407 13.146h2.424v-7.614h.057c1.083 1.74 3.251 2.31 4.762 2.31 4.506 0 6.73-3.508 6.73-7.671 0-4.164-2.253-7.757-6.787-7.757-2.025 0-3.907.713-4.705 2.338h-.057v-1.996h-2.424v20.39Zm24.556-5.646h2.567V483.58h.057l10.637 16.341h2.966v-20.362h-2.567v16.512h-.057l-10.723-16.512h-2.88v20.362Zm19.127-7.358c0 4.306 2.481 7.7 7.158 7.7 4.676 0 7.157-3.394 7.157-7.7 0-4.334-2.481-7.728-7.157-7.728-4.677 0-7.158 3.394-7.158 7.728Zm2.566 0c0-3.593 2.053-5.589 4.592-5.589 2.538 0 4.591 1.996 4.591 5.589 0 3.565-2.053 5.561-4.591 5.561-2.539 0-4.592-1.996-4.592-5.561Zm33.629-7.386h-2.51l-3.308 12.063h-.057l-3.08-12.063h-2.652l-2.966 12.063h-.057l-3.336-12.063h-2.681l4.734 14.744h2.624l2.965-11.721h.058l2.994 11.721h2.566l4.706-14.744ZM27.748 106.328c.28 7.169 5.768 9.801 12.265 9.801 5.88 0 12.32-2.24 12.32-9.129 0-5.6-4.704-7.168-9.464-8.232-4.424-1.064-9.465-1.624-9.465-5.04 0-2.913 3.305-3.697 6.16-3.697 3.137 0 6.385 1.176 6.721 4.872h4.76c-.391-7.056-5.488-9.072-11.872-9.072-5.04 0-10.81 2.408-10.81 8.232 0 5.545 4.761 7.113 9.466 8.177 4.76 1.064 9.464 1.68 9.464 5.376 0 3.641-4.032 4.313-7 4.313-3.92 0-7.617-1.344-7.785-5.601h-4.76Zm51.3-5.6c0 5.656-2.184 11.201-8.68 11.201-6.553 0-9.13-5.265-9.13-10.977 0-5.433 2.465-10.92 8.85-10.92 6.16 0 8.96 5.264 8.96 10.696Zm-22.402 25.818h4.76v-14.953h.113c2.128 3.416 6.384 4.536 9.352 4.536 8.849 0 13.217-6.888 13.217-15.065S79.664 85.831 70.76 85.831c-3.976 0-7.672 1.4-9.24 4.592h-.112v-3.92h-4.76v40.043Zm31.742-11.089h4.76v-12.881c0-7.336 2.8-11.705 10.473-11.705v-5.04c-5.152-.168-8.345 2.128-10.64 6.776h-.113v-6.104h-4.48v28.954Zm17.978 0h4.76V86.503h-4.76v28.954Zm4.76-39.987h-4.76v5.824h4.76V75.47Zm6.255 39.987h4.76V99.104c0-5.209 2.8-9.073 8.569-9.073 3.64 0 5.88 2.296 5.88 5.825v19.601h4.76V96.416c0-6.217-2.352-10.585-9.968-10.585-4.145 0-7.393 1.68-9.409 5.264h-.112v-4.592h-4.48v28.954Zm41.648-3.864c-6.272 0-8.177-5.825-8.177-11.033 0-5.545 2.465-10.529 8.569-10.529 5.993 0 8.233 5.264 8.233 10.361 0 5.432-2.352 11.201-8.625 11.201Zm13.329-25.09h-4.48v4.144h-.056c-1.736-3.192-4.985-4.816-8.625-4.816-10.025 0-13.385 8.456-13.385 15.289 0 7.897 4.312 14.673 12.937 14.673 3.64 0 7.449-1.736 9.017-5.264h.112v1.904c0 6.496-2.464 10.977-8.681 10.977-3.136 0-7.281-1.232-7.505-4.705h-4.76c.28 6.329 6.553 8.513 11.985 8.513 9.129 0 13.441-4.816 13.441-14.225v-26.49ZM378.761 196.787c.28 7.169 5.768 9.801 12.265 9.801 5.88 0 12.321-2.24 12.321-9.129 0-5.6-4.704-7.168-9.465-8.232-4.424-1.064-9.465-1.624-9.465-5.041 0-2.912 3.305-3.696 6.161-3.696 3.136 0 6.384 1.176 6.72 4.872h4.761c-.392-7.056-5.489-9.072-11.873-9.072-5.04 0-10.809 2.408-10.809 8.232 0 5.545 4.76 7.113 9.465 8.177 4.76 1.064 9.465 1.68 9.465 5.376 0 3.641-4.033 4.313-7.001 4.313-3.92 0-7.617-1.344-7.785-5.601h-4.76Zm46.652-.952c0 2.632-2.577 6.553-8.849 6.553-2.912 0-5.6-1.12-5.6-4.257 0-3.528 2.688-4.648 5.824-5.208 3.192-.56 6.777-.616 8.625-1.96v4.872Zm7.728 6.273c-.616.224-1.064.28-1.456.28-1.512 0-1.512-1.008-1.512-3.249v-14.897c0-6.776-5.656-7.952-10.865-7.952-6.44 0-11.985 2.52-12.265 9.688h4.761c.224-4.256 3.192-5.488 7.224-5.488 3.024 0 6.441.672 6.441 4.816 0 3.585-4.481 3.249-9.745 4.257-4.928.952-9.801 2.352-9.801 8.904 0 5.769 4.312 8.121 9.577 8.121 4.032 0 7.56-1.4 10.193-4.48 0 3.136 1.568 4.48 4.032 4.48 1.512 0 2.576-.28 3.416-.784v-3.696Zm3.591 3.808h4.76v-39.987h-4.76v39.987Zm31.008-9.185c-.84 3.753-3.584 5.657-7.504 5.657-6.329 0-9.185-4.481-9.017-9.521h21.674c.28-7.001-2.857-16.577-13.105-16.577-7.897 0-13.61 6.384-13.61 15.065.28 8.849 4.649 15.233 13.89 15.233 6.496 0 11.088-3.472 12.376-9.857h-4.704Zm-16.521-8.064c.336-4.425 3.304-8.177 8.288-8.177 4.705 0 8.121 3.64 8.345 8.177h-16.633ZM186.506 117.853h13.328V92.417c0-9.855 3.098-13.891 10.325-13.891 6.194 0 8.541 3.942 8.541 11.92v27.407h13.328V88.006c0-12.014-3.567-19.992-17.739-19.992-4.975 0-10.794 2.628-14.173 8.072h-.282V50.837h-13.328v67.016Zm52.258-24.216c0 15.393 9.856 25.53 25.061 25.53 15.299 0 25.154-10.137 25.154-25.53 0-15.487-9.855-25.623-25.154-25.623-15.205 0-25.061 10.136-25.061 25.623Zm13.328 0c0-7.79 2.722-15.58 11.733-15.58 9.104 0 11.826 7.79 11.826 15.58 0 7.697-2.722 15.487-11.826 15.487-9.011 0-11.733-7.79-11.733-15.487Zm44.051 24.216h13.328V89.695c0-9.48 6.383-11.17 9.011-11.17 8.447 0 8.072 6.477 8.072 12.109v27.219h13.328V90.821c0-6.1 1.407-12.295 8.916-12.295 7.603 0 8.166 5.35 8.166 11.826v27.501h13.328V85.378c0-12.578-7.415-17.364-17.739-17.364-6.758 0-11.827 3.848-14.642 8.072-2.629-5.82-8.072-8.072-14.173-8.072-6.289 0-11.357 2.91-14.83 7.884h-.188v-6.57h-12.577v48.525Zm128.798-21.025c.939-14.923-7.039-28.814-23.558-28.814-14.736 0-24.779 11.075-24.779 25.623 0 15.018 9.48 25.53 24.779 25.53 10.981 0 18.959-4.881 22.714-16.332h-11.733c-.844 3.004-5.162 6.289-10.512 6.289-7.415 0-11.545-3.848-11.92-12.296h35.009Zm-35.009-8.447c.188-3.754 2.628-10.325 11.075-10.325 6.477 0 9.386 3.567 10.606 10.325h-21.681ZM31.153 183.237c0 15.393 9.855 25.53 25.06 25.53 15.299 0 25.154-10.137 25.154-25.53 0-15.487-9.855-25.624-25.154-25.624-15.205 0-25.06 10.137-25.06 25.624Zm13.328 0c0-7.79 2.721-15.581 11.732-15.581 9.104 0 11.826 7.791 11.826 15.581 0 7.696-2.722 15.487-11.826 15.487-9.01 0-11.732-7.791-11.732-15.487Zm89.197-24.31H120.35v25.436c0 9.856-3.098 13.891-10.325 13.891-6.195 0-8.541-3.942-8.541-11.92v-27.407H88.156v29.848c0 12.014 3.566 19.992 17.739 19.992 5.632 0 11.451-2.628 14.83-8.072h.282v6.758h12.671v-48.526Zm25.133-14.548h-13.328v14.548h-8.072v8.917h8.072v28.627c0 9.668 7.133 11.545 15.299 11.545 2.628 0 5.537-.094 7.79-.47v-10.418c-1.408.282-2.722.376-4.13.376-4.505 0-5.631-1.127-5.631-5.632v-24.028h9.761v-8.917h-9.761v-14.548Zm48.859 63.074h12.671v-67.016h-13.328v24.404h-.188c-3.003-4.787-8.635-7.228-14.36-7.228-14.267 0-21.494 12.108-21.494 25.155 0 13.422 7.133 25.999 21.775 25.999 6.195 0 11.639-2.253 14.736-7.509h.188v6.195Zm-.188-24.404c0 7.978-2.628 15.675-11.45 15.675-8.26 0-11.733-7.978-11.733-15.581 0-7.978 3.004-15.487 11.733-15.487 8.635 0 11.45 7.509 11.45 15.393Zm19.554.188c0 15.393 9.855 25.53 25.06 25.53 15.299 0 25.154-10.137 25.154-25.53 0-15.487-9.855-25.624-25.154-25.624-15.205 0-25.06 10.137-25.06 25.624Zm13.328 0c0-7.79 2.722-15.581 11.732-15.581 9.105 0 11.826 7.791 11.826 15.581 0 7.696-2.721 15.487-11.826 15.487-9.01 0-11.732-7.791-11.732-15.487Zm42.173 0c0 15.393 9.856 25.53 25.061 25.53 15.299 0 25.154-10.137 25.154-25.53 0-15.487-9.855-25.624-25.154-25.624-15.205 0-25.061 10.137-25.061 25.624Zm13.328 0c0-7.79 2.722-15.581 11.733-15.581 9.104 0 11.826 7.791 11.826 15.581 0 7.696-2.722 15.487-11.826 15.487-9.011 0-11.733-7.791-11.733-15.487Zm43.676 24.216h13.328v-21.87c0-8.541 3.379-15.58 13.14-15.58 1.596 0 3.567.188 4.787.469v-12.389a9.926 9.926 0 0 0-2.91-.47c-6.476 0-13.046 4.224-15.487 10.325h-.187v-9.011h-12.671v48.526ZM43.768 285.416c-.064 5.632 4.672 8.128 9.728 8.128 6.208 0 9.504-3.136 9.504-7.328 0-5.184-5.12-6.24-6.784-6.656-5.728-1.472-6.816-1.696-6.816-3.456 0-1.92 1.856-2.592 3.456-2.592 2.4 0 4.352.704 4.512 3.456h4.864c0-5.28-4.384-7.36-9.152-7.36-4.128 0-8.544 2.24-8.544 6.912 0 4.288 3.424 5.6 6.816 6.496 3.36.896 6.784 1.312 6.784 3.776 0 2.336-2.688 2.848-4.448 2.848-2.688 0-5.056-1.184-5.056-4.224h-4.864Zm31.405 1.184c0 .992-.128 3.808-3.68 3.808-1.472 0-2.784-.416-2.784-2.112 0-1.664 1.28-2.144 2.688-2.432 1.408-.256 3.008-.288 3.776-.96v1.696Zm-5.952-5.056c.16-1.792 1.28-2.496 3.008-2.496 1.6 0 2.944.288 2.944 2.24 0 1.856-2.592 1.76-5.376 2.176-2.816.384-5.632 1.28-5.632 5.024 0 3.392 2.496 4.96 5.632 4.96 2.016 0 4.128-.544 5.568-2.048.032.544.16 1.088.32 1.6h4.608c-.416-.672-.576-2.176-.576-3.68v-8.608c0-3.968-3.968-4.704-7.264-4.704-3.712 0-7.52 1.28-7.776 5.536h4.544Zm28.135-5.088h-4.512l-3.488 11.296h-.064l-3.488-11.296h-4.768L86.7 293h5.056l5.6-16.544Zm16.913 9.376c.32-5.088-2.4-9.824-8.032-9.824-5.024 0-8.448 3.776-8.448 8.736 0 5.12 3.232 8.704 8.448 8.704 3.744 0 6.464-1.664 7.744-5.568h-4c-.288 1.024-1.76 2.144-3.584 2.144-2.528 0-3.936-1.312-4.064-4.192h11.936Zm-11.936-2.88c.064-1.28.896-3.52 3.776-3.52 2.208 0 3.2 1.216 3.616 3.52h-7.392Zm21.746 1.792c0 5.248 3.36 8.704 8.544 8.704 5.216 0 8.576-3.456 8.576-8.704 0-5.28-3.36-8.736-8.576-8.736-5.184 0-8.544 3.456-8.544 8.736Zm4.544 0c0-2.656.928-5.312 4-5.312 3.104 0 4.032 2.656 4.032 5.312 0 2.624-.928 5.28-4.032 5.28-3.072 0-4-2.656-4-5.28Zm14.89 8.256h4.544v-8.672c0-3.36 1.056-4.736 3.52-4.736 2.112 0 2.912 1.344 2.912 4.064V293h4.544v-10.176c0-4.096-1.216-6.816-6.048-6.816-1.92 0-3.904.896-5.056 2.752h-.096v-2.304h-4.32V293Zm42.275-7.168c.32-5.088-2.4-9.824-8.032-9.824-5.024 0-8.448 3.776-8.448 8.736 0 5.12 3.232 8.704 8.448 8.704 3.744 0 6.464-1.664 7.744-5.568h-4c-.288 1.024-1.76 2.144-3.584 2.144-2.528 0-3.936-1.312-4.064-4.192h11.936Zm-11.936-2.88c.064-1.28.896-3.52 3.776-3.52 2.208 0 3.2 1.216 3.616 3.52h-7.392Zm24.295 3.648c0 .992-.128 3.808-3.68 3.808-1.472 0-2.784-.416-2.784-2.112 0-1.664 1.28-2.144 2.688-2.432 1.408-.256 3.008-.288 3.776-.96v1.696Zm-5.952-5.056c.16-1.792 1.28-2.496 3.008-2.496 1.6 0 2.944.288 2.944 2.24 0 1.856-2.592 1.76-5.376 2.176-2.816.384-5.632 1.28-5.632 5.024 0 3.392 2.496 4.96 5.632 4.96 2.016 0 4.128-.544 5.568-2.048.032.544.16 1.088.32 1.6h4.608c-.416-.672-.576-2.176-.576-3.68v-8.608c0-3.968-3.968-4.704-7.264-4.704-3.712 0-7.52 1.28-7.776 5.536h4.544ZM205.578 293h4.544v-7.456c0-2.912 1.152-5.312 4.48-5.312.544 0 1.216.064 1.632.16v-4.224a3.388 3.388 0 0 0-.992-.16c-2.208 0-4.448 1.44-5.28 3.52h-.064v-3.072h-4.32V293Zm11.926 0h4.544v-22.848h-4.544V293Zm22.554-16.544h-4.704l-3.616 11.328h-.064l-3.744-11.328h-4.864l5.824 15.52c.512 1.312 0 2.944-1.568 3.104-.896.032-1.792-.096-2.656-.16v3.744c.928.096 1.856.16 2.784.16 3.136 0 4.704-1.088 5.696-3.744l6.912-18.624Zm8.347 11.168c.192 4.384 3.936 5.824 7.776 5.824 3.776 0 7.552-1.408 7.552-5.76 0-3.072-2.592-4.032-5.248-4.64-2.592-.608-5.152-.832-5.152-2.464 0-1.344 1.504-1.536 2.528-1.536 1.632 0 2.976.48 3.104 2.24h4.32c-.352-4.064-3.68-5.28-7.296-5.28-3.552 0-7.2 1.088-7.2 5.312 0 2.912 2.624 3.84 5.248 4.416 3.264.704 5.152 1.184 5.152 2.56 0 1.6-1.664 2.112-2.976 2.112-1.792 0-3.456-.8-3.488-2.784h-4.32Zm17.348 11.2h4.544v-7.872h.064c1.088 1.632 2.976 2.496 4.96 2.496 4.832 0 7.264-4.128 7.264-8.544 0-4.704-2.336-8.896-7.52-8.896-2.048 0-3.84.8-4.928 2.56h-.064v-2.112h-4.32v22.368Zm8.352-8.8c-2.944 0-3.968-2.56-3.968-5.248s.96-5.344 3.936-5.344c2.912 0 3.968 2.72 3.968 5.344 0 2.688-.96 5.248-3.936 5.248Zm10.57 2.976h4.544v-7.456c0-2.912 1.152-5.312 4.48-5.312.544 0 1.216.064 1.632.16v-4.224a3.388 3.388 0 0 0-.992-.16c-2.208 0-4.448 1.44-5.28 3.52h-.064v-3.072h-4.32V293Zm11.926 0h4.544v-16.544h-4.544V293Zm4.544-22.848h-4.544v3.744h4.544v-3.744ZM304.083 293h4.544v-8.672c0-3.36 1.056-4.736 3.52-4.736 2.112 0 2.912 1.344 2.912 4.064V293h4.544v-10.176c0-4.096-1.216-6.816-6.048-6.816-1.92 0-3.904.896-5.056 2.752h-.096v-2.304h-4.32V293Zm34.233-16.544h-4.32v2.208h-.064c-1.088-1.92-2.752-2.656-4.928-2.656-4.64 0-7.104 3.904-7.104 8.192 0 4.544 2.112 8.32 7.072 8.32 1.984 0 3.968-.832 4.96-2.56h.064v2.176c.032 2.368-1.12 4.096-3.648 4.096-1.6 0-2.976-.576-3.392-2.272h-4.512c.224 3.776 4.032 5.312 7.296 5.312 7.616 0 8.576-4.608 8.576-7.328v-15.488Zm-8.192 12.64c-2.784 0-3.68-2.592-3.68-4.96 0-2.464 1.12-4.704 3.68-4.704 2.944 0 3.872 2.4 3.872 5.088 0 2.368-1.28 4.576-3.872 4.576Zm18.676-1.472c.192 4.384 3.936 5.824 7.776 5.824 3.776 0 7.552-1.408 7.552-5.76 0-3.072-2.592-4.032-5.248-4.64-2.592-.608-5.152-.832-5.152-2.464 0-1.344 1.504-1.536 2.528-1.536 1.632 0 2.976.48 3.104 2.24h4.32c-.352-4.064-3.68-5.28-7.296-5.28-3.552 0-7.2 1.088-7.2 5.312 0 2.912 2.624 3.84 5.248 4.416 3.264.704 5.152 1.184 5.152 2.56 0 1.6-1.664 2.112-2.976 2.112-1.792 0-3.456-.8-3.488-2.784h-4.32Zm23.108-16.128h-4.544v4.96h-2.752v3.04h2.752v9.76c0 3.296 2.432 3.936 5.216 3.936.896 0 1.888-.032 2.656-.16v-3.552c-.48.096-.928.128-1.408.128-1.536 0-1.92-.384-1.92-1.92v-8.192h3.328v-3.04h-3.328v-4.96Zm20.53 14.336c.32-5.088-2.4-9.824-8.032-9.824-5.024 0-8.448 3.776-8.448 8.736 0 5.12 3.232 8.704 8.448 8.704 3.744 0 6.464-1.664 7.744-5.568h-4c-.288 1.024-1.76 2.144-3.584 2.144-2.528 0-3.936-1.312-4.064-4.192h11.936Zm-11.936-2.88c.064-1.28.896-3.52 3.776-3.52 2.208 0 3.2 1.216 3.616 3.52h-7.392Zm24.295 3.648c0 .992-.128 3.808-3.68 3.808-1.472 0-2.784-.416-2.784-2.112 0-1.664 1.28-2.144 2.688-2.432 1.408-.256 3.008-.288 3.776-.96v1.696Zm-5.952-5.056c.16-1.792 1.28-2.496 3.008-2.496 1.6 0 2.944.288 2.944 2.24 0 1.856-2.592 1.76-5.376 2.176-2.816.384-5.632 1.28-5.632 5.024 0 3.392 2.496 4.96 5.632 4.96 2.016 0 4.128-.544 5.568-2.048.032.544.16 1.088.32 1.6h4.608c-.416-.672-.576-2.176-.576-3.68v-8.608c0-3.968-3.968-4.704-7.264-4.704-3.712 0-7.52 1.28-7.776 5.536h4.544ZM412.356 293h4.544v-22.848h-4.544V293Zm6.682-5.376c.192 4.384 3.936 5.824 7.776 5.824 3.776 0 7.552-1.408 7.552-5.76 0-3.072-2.592-4.032-5.248-4.64-2.592-.608-5.152-.832-5.152-2.464 0-1.344 1.504-1.536 2.528-1.536 1.632 0 2.976.48 3.104 2.24h4.32c-.352-4.064-3.68-5.28-7.296-5.28-3.552 0-7.2 1.088-7.2 5.312 0 2.912 2.624 3.84 5.248 4.416 3.264.704 5.152 1.184 5.152 2.56 0 1.6-1.664 2.112-2.976 2.112-1.792 0-3.456-.8-3.488-2.784h-4.32Zm22.436-17.472h-4.736v6.144l1.216 9.856h2.272l1.248-9.856v-6.144ZM436.61 293h5.024v-4.928h-5.024V293Z" fill="#fff"/><path fill="#FFFAEE" d="M143 243h197v3H143z"/><path d="M470.873 68.601h-9.216v17.14h-17.14v9.216h17.14v17.139h9.216v-17.14h17.139v-9.215h-17.139V68.6Z" fill="#fff"/></g><defs><clipPath id="a"><path fill="#fff" d="M0 0h1400v550H0z"/></clipPath></defs></svg>