<svg width="261" height="261" viewBox="0 0 261 261" fill="none" xmlns="http://www.w3.org/2000/svg">
<g clip-path="url(#clip0_1558_573)">
<path d="M116.364 210.8C123.891 210.8 131.417 210.8 138.944 210.8C140.889 210.8 142.834 210.8 144.807 210.8C147.795 210.8 147.795 206.148 144.807 206.148C137.309 206.148 129.839 206.148 122.34 206.148C120.339 206.148 118.366 206.148 116.364 206.148C113.348 206.148 113.348 210.8 116.364 210.8Z" fill="#FF4693"/>
<path d="M128.26 164.051C128.26 177.021 128.26 189.991 128.26 202.961C128.26 204.794 128.26 206.627 128.26 208.46C128.26 211.448 132.911 211.448 132.911 208.46C132.911 195.49 132.911 182.52 132.911 169.55C132.911 167.717 132.911 165.884 132.911 164.051C132.911 161.063 128.26 161.063 128.26 164.051Z" fill="#FF4693"/>
<path d="M117.182 165.687C121.1 169.775 125.018 173.864 128.937 177.924C129.782 178.826 131.361 178.826 132.235 177.924C136.153 173.835 140.071 169.747 143.989 165.687C146.075 163.516 142.777 160.245 140.691 162.388C136.773 166.476 132.855 170.565 128.937 174.625C130.036 174.625 131.135 174.625 132.235 174.625C128.316 170.536 124.398 166.448 120.48 162.388C118.394 160.245 115.096 163.544 117.182 165.687Z" fill="#FF4693"/>
<path d="M91.7276 163.544C114.589 163.713 137.45 163.911 160.311 164.08C163.58 164.108 166.878 164.136 170.148 164.164C173.136 164.193 173.136 159.54 170.148 159.512C147.287 159.343 124.426 159.145 101.565 158.976C98.2955 158.948 94.9975 158.92 91.7276 158.892C88.7396 158.864 88.7396 163.516 91.7276 163.544Z" fill="#FF4693"/>
<path d="M132.911 157.905C133.024 131.429 133.137 104.953 133.249 78.5057C133.278 74.7557 133.278 71.0056 133.306 67.2556C133.306 64.2669 128.655 64.2669 128.655 67.2556C128.542 93.7314 128.429 120.207 128.316 146.655C128.288 150.405 128.288 154.155 128.26 157.905C128.232 160.894 132.883 160.894 132.911 157.905Z" fill="#FF4693"/>
<path d="M129.951 66.2969C103.539 76.25 77.1259 86.2031 50.7131 96.1562C47.0204 97.5378 43.3559 98.9194 39.6632 100.329C37.7746 101.034 37.1544 104.446 39.6632 104.812C55.2233 107.153 70.8116 109.493 86.3717 111.833C88.1194 112.087 89.6698 112.622 91.1638 111.382C92.9961 109.887 94.6028 107.942 96.266 106.278C103.088 99.4269 109.937 92.5753 116.759 85.7238C121.918 80.5358 127.076 75.3759 132.235 70.1879C134.349 68.0733 131.051 64.7744 128.937 66.889C115.181 80.6767 101.424 94.4926 87.6966 108.28C88.4577 108.083 89.2188 107.886 89.9517 107.688C73.6023 105.235 57.2529 102.754 40.9035 100.301C40.9035 101.795 40.9035 103.29 40.9035 104.784C67.3162 94.831 93.729 84.8779 120.17 74.9248C123.863 73.5432 127.527 72.1616 131.22 70.7518C133.982 69.7368 132.77 65.2537 129.951 66.2969Z" fill="#FF4693"/>
<path d="M129.951 70.78C156.364 80.7331 182.777 90.6862 209.218 100.639C212.91 102.021 216.575 103.402 220.268 104.812C220.268 103.318 220.268 101.823 220.268 100.329C203.918 102.782 187.569 105.263 171.219 107.716C171.981 107.914 172.742 108.111 173.475 108.308C159.719 94.5208 145.962 80.7049 132.235 66.9172C130.12 64.8025 126.822 68.0732 128.937 70.2161C140.325 81.6354 151.713 93.0546 163.073 104.474C165.187 106.589 167.273 108.788 169.444 110.846C170.712 112.059 171.727 112.312 173.446 112.059C181.508 110.874 189.598 109.634 197.66 108.421C205.61 107.237 213.559 106.025 221.48 104.84C223.989 104.474 223.368 101.062 221.48 100.357C195.067 90.376 168.654 80.4229 142.242 70.4699C138.549 69.0883 134.884 67.7067 131.192 66.2969C128.401 65.2537 127.189 69.7368 129.951 70.78Z" fill="#FF4693"/>
<path d="M130.938 68.5525L89.3315 109.944H171.84L130.938 68.5525Z" fill="#FFFAEE"/>
<path d="M129.303 66.9172C115.434 80.7049 101.565 94.5208 87.6685 108.309C86.2308 109.718 87.302 112.284 89.3034 112.284C113.348 112.284 137.393 112.284 161.438 112.284C164.877 112.284 168.344 112.284 171.783 112.284C173.813 112.284 174.828 109.746 173.418 108.309C159.803 94.5208 146.16 80.7049 132.545 66.9172C130.431 64.7743 127.161 68.0732 129.247 70.2161C142.862 84.0038 156.505 97.8197 170.12 111.607C170.656 110.282 171.22 108.957 171.755 107.632C147.71 107.632 123.665 107.632 99.6204 107.632C96.1814 107.632 92.7142 107.632 89.2752 107.632C89.8108 108.957 90.3746 110.282 90.9101 111.607C104.779 97.8197 118.648 84.0038 132.545 70.2161C134.715 68.0732 131.417 64.8025 129.303 66.9172Z" fill="#FF4693"/>
</g>
<path d="M0 0H157L0 146V0Z" fill="#3DA376"/>
<path d="M20.3319 18.778H15.0189C15.0342 18.548 15.0802 18.2873 15.1569 17.996C15.2489 17.7047 15.3946 17.4287 15.5939 17.168C15.8086 16.9073 16.0846 16.6927 16.4219 16.524C16.7746 16.34 17.2116 16.248 17.7329 16.248C18.5302 16.248 19.1206 16.4627 19.5039 16.892C19.9026 17.3213 20.1786 17.95 20.3319 18.778ZM15.0189 20.848H23.5979C23.6592 19.928 23.5826 19.0463 23.3679 18.203C23.1532 17.3597 22.8006 16.6083 22.3099 15.949C21.8346 15.2897 21.2212 14.7683 20.4699 14.385C19.7186 13.9863 18.8369 13.787 17.8249 13.787C16.9202 13.787 16.0922 13.948 15.3409 14.27C14.6049 14.592 13.9686 15.0367 13.4319 15.604C12.8952 16.156 12.4812 16.8153 12.1899 17.582C11.8986 18.3487 11.7529 19.1767 11.7529 20.066C11.7529 20.986 11.8909 21.8293 12.1669 22.596C12.4582 23.3627 12.8646 24.022 13.3859 24.574C13.9072 25.126 14.5436 25.5553 15.2949 25.862C16.0462 26.1533 16.8896 26.299 17.8249 26.299C19.1742 26.299 20.3242 25.9923 21.2749 25.379C22.2256 24.7657 22.9309 23.746 23.3909 22.32H20.5159C20.4086 22.688 20.1172 23.0407 19.6419 23.378C19.1666 23.7 18.5992 23.861 17.9399 23.861C17.0199 23.861 16.3146 23.6233 15.8239 23.148C15.3332 22.6727 15.0649 21.906 15.0189 20.848ZM28.5709 19.744L24.2929 26H27.9499L30.4339 22.251L32.9179 26H36.6439L32.2509 19.675L36.1609 14.109H32.5499L30.4799 17.214L28.3869 14.109H24.6609L28.5709 19.744ZM42.0285 14.109V10.544H38.7625V14.109H36.7845V16.294H38.7625V23.309C38.7625 23.907 38.8621 24.39 39.0615 24.758C39.2608 25.126 39.5291 25.4097 39.8665 25.609C40.2191 25.8083 40.6178 25.9387 41.0625 26C41.5225 26.0767 42.0055 26.115 42.5115 26.115C42.8335 26.115 43.1631 26.1073 43.5005 26.092C43.8378 26.0767 44.1445 26.046 44.4205 26V23.47C44.2671 23.5007 44.1061 23.5237 43.9375 23.539C43.7688 23.5543 43.5925 23.562 43.4085 23.562C42.8565 23.562 42.4885 23.47 42.3045 23.286C42.1205 23.102 42.0285 22.734 42.0285 22.182V16.294H44.4205V14.109H42.0285ZM45.9744 14.109V26H49.2404V20.641C49.2404 20.1043 49.2941 19.606 49.4014 19.146C49.5087 18.686 49.6851 18.2873 49.9304 17.95C50.1911 17.5973 50.5284 17.3213 50.9424 17.122C51.3564 16.9227 51.8624 16.823 52.4604 16.823C52.6597 16.823 52.8667 16.8383 53.0814 16.869C53.2961 16.8843 53.4801 16.9073 53.6334 16.938V13.902C53.3727 13.8253 53.1351 13.787 52.9204 13.787C52.5064 13.787 52.1077 13.8483 51.7244 13.971C51.3411 14.0937 50.9807 14.27 50.6434 14.5C50.3061 14.7147 50.0071 14.983 49.7464 15.305C49.4857 15.6117 49.2787 15.949 49.1254 16.317H49.0794V14.109H45.9744ZM54.7759 17.766C54.8219 16.9993 55.0135 16.363 55.3509 15.857C55.6882 15.351 56.1175 14.9447 56.6389 14.638C57.1602 14.3313 57.7429 14.1167 58.3869 13.994C59.0462 13.856 59.7055 13.787 60.3649 13.787C60.9629 13.787 61.5685 13.833 62.1819 13.925C62.7952 14.0017 63.3549 14.1627 63.8609 14.408C64.3669 14.6533 64.7809 14.9983 65.1029 15.443C65.4249 15.8723 65.5859 16.4473 65.5859 17.168V23.355C65.5859 23.8917 65.6165 24.4053 65.6779 24.896C65.7392 25.3867 65.8465 25.7547 65.9999 26H62.6879C62.6265 25.816 62.5729 25.632 62.5269 25.448C62.4962 25.2487 62.4732 25.0493 62.4579 24.85C61.9365 25.3867 61.3232 25.7623 60.6179 25.977C59.9125 26.1917 59.1919 26.299 58.4559 26.299C57.8885 26.299 57.3595 26.23 56.8689 26.092C56.3782 25.954 55.9489 25.7393 55.5809 25.448C55.2129 25.1567 54.9215 24.7887 54.7069 24.344C54.5075 23.8993 54.4079 23.3703 54.4079 22.757C54.4079 22.0823 54.5229 21.5303 54.7529 21.101C54.9982 20.6563 55.3049 20.3037 55.6729 20.043C56.0562 19.7823 56.4855 19.5907 56.9609 19.468C57.4515 19.33 57.9422 19.2227 58.4329 19.146C58.9235 19.0693 59.4065 19.008 59.8819 18.962C60.3572 18.916 60.7789 18.847 61.1469 18.755C61.5149 18.663 61.8062 18.5327 62.0209 18.364C62.2355 18.18 62.3352 17.9193 62.3199 17.582C62.3199 17.2293 62.2585 16.9533 62.1359 16.754C62.0285 16.5393 61.8752 16.3783 61.6759 16.271C61.4919 16.1483 61.2695 16.0717 61.0089 16.041C60.7635 15.995 60.4952 15.972 60.2039 15.972C59.5599 15.972 59.0539 16.11 58.6859 16.386C58.3179 16.662 58.1032 17.122 58.0419 17.766H54.7759ZM62.3199 20.181C62.1819 20.3037 62.0055 20.4033 61.7909 20.48C61.5915 20.5413 61.3692 20.595 61.1239 20.641C60.8939 20.687 60.6485 20.7253 60.3879 20.756C60.1272 20.7867 59.8665 20.825 59.6059 20.871C59.3605 20.917 59.1152 20.9783 58.8699 21.055C58.6399 21.1317 58.4329 21.239 58.2489 21.377C58.0802 21.4997 57.9422 21.6607 57.8349 21.86C57.7275 22.0593 57.6739 22.3123 57.6739 22.619C57.6739 22.9103 57.7275 23.1557 57.8349 23.355C57.9422 23.5543 58.0879 23.7153 58.2719 23.838C58.4559 23.9453 58.6705 24.022 58.9159 24.068C59.1612 24.114 59.4142 24.137 59.6749 24.137C60.3189 24.137 60.8172 24.0297 61.1699 23.815C61.5225 23.6003 61.7832 23.3473 61.9519 23.056C62.1205 22.7493 62.2202 22.4427 62.2509 22.136C62.2969 21.8293 62.3199 21.584 62.3199 21.4V20.181Z" fill="white"/>
<path d="M29.6062 70V31.9606H23.4655C23.2482 33.4097 22.7953 34.6234 22.107 35.6015C21.4186 36.5797 20.5673 37.3767 19.5529 37.9926C18.5747 38.5722 17.4517 38.9888 16.1837 39.2424C14.9519 39.4598 13.6658 39.5504 12.3254 39.5141V45.3287H21.8896V70H29.6062ZM65.671 38.3186V31.9606H44.4233L40.6737 52.991H47.6295C48.3902 51.9403 49.2054 51.1796 50.0748 50.7086C50.9443 50.2014 52.0674 49.9478 53.4441 49.9478C54.4947 49.9478 55.4185 50.1289 56.2155 50.4912C57.0125 50.8535 57.7008 51.3607 58.2805 52.0128C58.8601 52.6649 59.2949 53.4257 59.5847 54.2952C59.8745 55.1646 60.0194 56.0884 60.0194 57.0666C60.0194 58.0085 59.8564 58.9323 59.5304 59.838C59.2405 60.7075 58.8058 61.4864 58.2261 62.1748C57.6827 62.8269 56.9944 63.3703 56.1612 63.805C55.3641 64.2035 54.4584 64.4028 53.4441 64.4028C51.7051 64.4028 50.2741 63.8956 49.151 62.8812C48.028 61.8306 47.3759 60.4358 47.1947 58.6969H39.4782C39.5144 60.6894 39.9129 62.4465 40.6737 63.968C41.4707 65.4534 42.5213 66.7033 43.8255 67.7176C45.1297 68.732 46.6151 69.4928 48.2816 70C49.9843 70.471 51.7594 70.7064 53.6071 70.7064C55.5272 70.7427 57.3386 70.4347 59.0413 69.7826C60.744 69.0943 62.2293 68.1343 63.4973 66.9025C64.8015 65.6708 65.834 64.2216 66.5948 62.5551C67.3556 60.8524 67.736 59.0229 67.736 57.0666C67.736 55.2914 67.4643 53.6249 66.9209 52.0671C66.4137 50.4731 65.6529 49.0964 64.6385 47.9371C63.6603 46.7779 62.4467 45.854 60.9976 45.1657C59.5485 44.4774 57.882 44.1332 55.9981 44.1332C54.4765 44.1332 53.118 44.3687 51.9225 44.8397C50.727 45.2744 49.6039 46.0171 48.5533 47.0677L48.4446 46.959L49.9662 38.3186H65.671Z" fill="white"/>
<path d="M85.132 46.268C85.132 45.9733 85.1407 45.644 85.158 45.28C85.1927 44.916 85.2707 44.578 85.392 44.266C85.5133 43.954 85.6867 43.694 85.912 43.486C86.1547 43.278 86.484 43.174 86.9 43.174C87.2813 43.174 87.576 43.2953 87.784 43.538C88.0093 43.7633 88.174 44.0407 88.278 44.37C88.382 44.682 88.4427 45.02 88.46 45.384C88.4947 45.7307 88.512 46.034 88.512 46.294C88.512 46.5713 88.4947 46.892 88.46 47.256C88.4427 47.6027 88.3733 47.9407 88.252 48.27C88.148 48.582 87.9747 48.8507 87.732 49.076C87.5067 49.3013 87.1947 49.414 86.796 49.414C86.38 49.414 86.0593 49.3013 85.834 49.076C85.6087 48.8507 85.444 48.582 85.34 48.27C85.236 47.9407 85.1753 47.594 85.158 47.23C85.1407 46.866 85.132 46.5453 85.132 46.268ZM82.48 46.242C82.48 46.9527 82.5493 47.62 82.688 48.244C82.844 48.868 83.0867 49.414 83.416 49.882C83.7627 50.3327 84.2047 50.688 84.742 50.948C85.2967 51.208 85.9727 51.338 86.77 51.338C87.5327 51.338 88.1913 51.2167 88.746 50.974C89.3007 50.714 89.7513 50.3587 90.098 49.908C90.462 49.4573 90.7307 48.9287 90.904 48.322C91.0773 47.7153 91.164 47.0567 91.164 46.346C91.164 45.6353 91.0947 44.968 90.956 44.344C90.8173 43.72 90.5747 43.1827 90.228 42.732C89.8987 42.264 89.4653 41.9 88.928 41.64C88.3907 41.3627 87.7147 41.224 86.9 41.224C86.1373 41.224 85.4787 41.354 84.924 41.614C84.3693 41.874 83.91 42.2293 83.546 42.68C83.182 43.1307 82.9133 43.6593 82.74 44.266C82.5667 44.8727 82.48 45.5313 82.48 46.242ZM84.482 32.228L73.718 51.546H75.98L86.692 32.228H84.482ZM71.716 37.636C71.716 37.3413 71.7247 37.0033 71.742 36.622C71.7767 36.2407 71.8547 35.8853 71.976 35.556C72.0973 35.2267 72.2707 34.9493 72.496 34.724C72.7387 34.4987 73.068 34.386 73.484 34.386C73.8653 34.386 74.16 34.5073 74.368 34.75C74.5933 34.9927 74.758 35.2873 74.862 35.634C74.966 35.9807 75.0267 36.3447 75.044 36.726C75.0787 37.09 75.096 37.402 75.096 37.662C75.096 37.9393 75.0787 38.2513 75.044 38.598C75.0267 38.9273 74.9573 39.248 74.836 39.56C74.732 39.8547 74.5587 40.106 74.316 40.314C74.0907 40.522 73.7787 40.626 73.38 40.626C72.964 40.626 72.6433 40.522 72.418 40.314C72.1927 40.106 72.028 39.8547 71.924 39.56C71.82 39.248 71.7593 38.9187 71.742 38.572C71.7247 38.2253 71.716 37.9133 71.716 37.636ZM69.064 37.584C69.064 38.2947 69.1333 38.962 69.272 39.586C69.428 40.1927 69.6707 40.7213 70 41.172C70.3467 41.6053 70.7887 41.952 71.326 42.212C71.8807 42.4547 72.5567 42.576 73.354 42.576C74.1167 42.576 74.7753 42.4547 75.33 42.212C75.8847 41.9693 76.3353 41.6313 76.682 41.198C77.046 40.7647 77.3147 40.2533 77.488 39.664C77.6613 39.0573 77.748 38.3987 77.748 37.688C77.748 36.9773 77.6787 36.3013 77.54 35.66C77.4013 35.0187 77.1587 34.464 76.812 33.996C76.4827 33.5107 76.0493 33.1293 75.512 32.852C74.9747 32.5747 74.2987 32.436 73.484 32.436C72.7213 32.436 72.0627 32.5747 71.508 32.852C70.9533 33.112 70.494 33.476 70.13 33.944C69.766 34.412 69.4973 34.958 69.324 35.582C69.1507 36.206 69.064 36.8733 69.064 37.584Z" fill="white"/>
<path d="M14.68 86.292C14.68 85.7547 14.732 85.226 14.836 84.706C14.94 84.186 15.1133 83.7267 15.356 83.328C15.616 82.9293 15.954 82.6087 16.37 82.366C16.786 82.106 17.306 81.976 17.93 81.976C18.554 81.976 19.074 82.106 19.49 82.366C19.9233 82.6087 20.2613 82.9293 20.504 83.328C20.764 83.7267 20.946 84.186 21.05 84.706C21.154 85.226 21.206 85.7547 21.206 86.292C21.206 86.8293 21.154 87.358 21.05 87.878C20.946 88.3807 20.764 88.84 20.504 89.256C20.2613 89.6547 19.9233 89.9753 19.49 90.218C19.074 90.4607 18.554 90.582 17.93 90.582C17.306 90.582 16.786 90.4607 16.37 90.218C15.954 89.9753 15.616 89.6547 15.356 89.256C15.1133 88.84 14.94 88.3807 14.836 87.878C14.732 87.358 14.68 86.8293 14.68 86.292ZM10.988 86.292C10.988 87.3667 11.1527 88.3373 11.482 89.204C11.8113 90.0707 12.2793 90.816 12.886 91.44C13.4927 92.0467 14.2207 92.5147 15.07 92.844C15.9193 93.1733 16.8727 93.338 17.93 93.338C18.9873 93.338 19.9407 93.1733 20.79 92.844C21.6567 92.5147 22.3933 92.0467 23 91.44C23.6067 90.816 24.0747 90.0707 24.404 89.204C24.7333 88.3373 24.898 87.3667 24.898 86.292C24.898 85.2173 24.7333 84.2467 24.404 83.38C24.0747 82.496 23.6067 81.7507 23 81.144C22.3933 80.52 21.6567 80.0433 20.79 79.714C19.9407 79.3673 18.9873 79.194 17.93 79.194C16.8727 79.194 15.9193 79.3673 15.07 79.714C14.2207 80.0433 13.4927 80.52 12.886 81.144C12.2793 81.7507 11.8113 82.496 11.482 83.38C11.1527 84.2467 10.988 85.2173 10.988 86.292ZM35.9825 82.028H31.7965V93H28.1045V82.028H25.8945V79.558H28.1045V78.518C28.1045 77.322 28.4772 76.3427 29.2225 75.58C29.9679 74.8173 31.0945 74.436 32.6025 74.436C32.9319 74.436 33.2612 74.4533 33.5905 74.488C33.9199 74.5053 34.2405 74.5227 34.5525 74.54V77.296C34.1019 77.244 33.6512 77.218 33.2005 77.218C32.6979 77.218 32.3339 77.3393 32.1085 77.582C31.9005 77.8073 31.7965 78.1973 31.7965 78.752V79.558H35.9825V78.518C35.9825 77.322 36.3552 76.3427 37.1005 75.58C37.8459 74.8173 38.9725 74.436 40.4805 74.436C40.8099 74.436 41.1392 74.4533 41.4685 74.488C41.7979 74.5053 42.1185 74.5227 42.4305 74.54V77.296C41.9799 77.244 41.5292 77.218 41.0785 77.218C40.5759 77.218 40.2119 77.3393 39.9865 77.582C39.7785 77.8073 39.6745 78.1973 39.6745 78.752V79.558H42.2225V82.028H39.6745V93H35.9825V82.028Z" fill="white"/>
<path d="M49.02 76.98V74.72H47.96V76.98L45.84 76.18L45.48 77.14L47.6 77.9L46.3 79.72L47.2 80.34L48.5 78.42L49.88 80.34L50.7 79.72L49.38 77.9L51.56 77.14L51.16 76.18L49.02 76.98Z" fill="white"/>
<defs>
<clipPath id="clip0_1558_573">
<rect width="185.143" height="145.8" fill="white" transform="translate(38 65)"/>
</clipPath>
</defs>
</svg>
