<svg width="261" height="261" viewBox="0 0 261 261" fill="none" xmlns="http://www.w3.org/2000/svg">
<path d="M192.591 192.431H67.8113C67.8113 196.211 67.8113 199.991 67.8113 203.771C67.8113 210.491 67.3513 210.931 60.4813 210.931C55.9413 210.931 51.4113 210.931 46.8713 210.931C43.6513 210.931 42.0113 209.501 42.0213 206.221C42.0213 188.351 41.9413 170.471 42.0913 152.601C42.0262 150.097 42.7113 147.631 44.0584 145.519C45.4056 143.408 47.3533 141.747 49.6513 140.751C51.8013 139.751 52.2313 138.451 52.2213 136.311C52.1713 120.101 52.1713 103.871 52.1713 87.6508C52.1713 77.0708 56.9813 72.2708 67.5013 72.2308C69.4213 72.2308 71.3513 72.2308 73.2713 72.2908C80.3747 72.7167 87.4628 71.2355 93.8013 68.0008C107.681 61.1808 122.881 60.3608 138.121 61.3408C150.311 62.1208 162.021 64.6208 172.751 70.8908C174.631 71.9908 177.221 72.1508 179.511 72.2508C184.171 72.4408 188.851 72.3208 193.511 72.2508C202.911 72.1808 208.201 77.2508 208.231 86.6008C208.298 102.961 208.298 119.321 208.231 135.681C208.231 138.291 208.791 139.811 211.331 141.081C216.011 143.421 218.331 147.701 218.331 152.861C218.441 170.601 218.331 188.331 218.331 206.071C218.331 209.271 216.861 210.931 213.601 210.931C208.101 210.931 202.601 210.931 197.101 210.931C194.001 210.931 192.571 209.351 192.551 206.351C192.571 201.851 192.591 197.341 192.591 192.431ZM193.881 138.841H201.041C201.041 120.841 201.101 103.081 200.991 85.3608C200.991 81.6708 198.761 79.5408 194.931 79.5108C189.701 79.4508 184.461 79.7208 179.261 79.3708C175.901 79.1408 172.161 78.8308 169.351 77.2208C159.661 71.6708 149.181 69.3608 138.271 68.6108C123.871 67.6108 109.461 68.2008 96.3613 74.7608C89.7966 78.1947 82.4435 79.8398 75.0413 79.5308C72.2913 79.4108 69.5413 79.4408 66.7913 79.5308C61.2013 79.5908 59.3913 81.4008 59.3813 86.9608C59.3813 101.394 59.3613 115.827 59.3213 130.261V138.891H66.7513C66.7513 136.891 66.6713 135.251 66.7513 133.611C66.8687 130.769 67.908 128.042 69.7121 125.843C71.5161 123.644 73.987 122.091 76.7513 121.421C87.791 118.946 99.2416 118.946 110.281 121.421C113.063 122.014 115.57 123.514 117.407 125.686C119.244 127.858 120.308 130.579 120.431 133.421C120.571 135.291 120.641 137.161 120.731 138.991H139.901C139.901 137.101 139.821 135.471 139.901 133.851C140.251 127.391 144.191 122.681 150.461 121.341C160.022 119.256 169.894 119.026 179.541 120.661C190.061 122.441 193.241 126.191 193.641 136.931C193.691 137.501 193.801 138.151 193.881 138.841V138.841ZM211.061 167.221V155.941C211.061 148.231 209.281 146.421 201.671 146.421H115.071C95.8246 146.421 76.578 146.421 57.3313 146.421C52.4113 146.421 49.5913 148.341 49.3313 152.271C49.0713 157.171 49.2713 162.091 49.2713 167.221H211.061ZM60.6513 203.491C60.6513 199.021 60.6513 195.061 60.6513 191.091C60.6513 185.861 61.4713 185.091 66.6513 185.091C87.0046 185.091 107.338 185.074 127.651 185.041C149.778 185.041 171.908 185.067 194.041 185.121C198.981 185.121 199.701 185.911 199.741 190.961C199.741 195.041 199.741 199.131 199.741 203.431H210.861V175.001H49.5713V203.521L60.6513 203.491ZM112.911 139.001C114.221 131.211 112.541 128.341 105.271 127.841C97.4879 127.286 89.6748 127.286 81.8913 127.841C74.5813 128.391 73.0813 131.141 74.5013 138.971L112.911 139.001ZM147.431 138.891H186.171C186.911 130.391 185.511 128.271 177.391 127.731C170.149 127.247 162.882 127.264 155.641 127.781C147.901 128.311 146.331 130.801 147.431 138.881V138.891Z" fill="#FF4693" stroke="#FFFAEE" stroke-width="3.5" stroke-miterlimit="10"/>
<path d="M0 0H157L0 146V0Z" fill="#3DA376"/>
<path d="M20.3319 18.778H15.0189C15.0342 18.548 15.0802 18.2873 15.1569 17.996C15.2489 17.7047 15.3946 17.4287 15.5939 17.168C15.8086 16.9073 16.0846 16.6927 16.4219 16.524C16.7746 16.34 17.2116 16.248 17.7329 16.248C18.5302 16.248 19.1206 16.4627 19.5039 16.892C19.9026 17.3213 20.1786 17.95 20.3319 18.778ZM15.0189 20.848H23.5979C23.6592 19.928 23.5826 19.0463 23.3679 18.203C23.1532 17.3597 22.8006 16.6083 22.3099 15.949C21.8346 15.2897 21.2212 14.7683 20.4699 14.385C19.7186 13.9863 18.8369 13.787 17.8249 13.787C16.9202 13.787 16.0922 13.948 15.3409 14.27C14.6049 14.592 13.9686 15.0367 13.4319 15.604C12.8952 16.156 12.4812 16.8153 12.1899 17.582C11.8986 18.3487 11.7529 19.1767 11.7529 20.066C11.7529 20.986 11.8909 21.8293 12.1669 22.596C12.4582 23.3627 12.8646 24.022 13.3859 24.574C13.9072 25.126 14.5436 25.5553 15.2949 25.862C16.0462 26.1533 16.8896 26.299 17.8249 26.299C19.1742 26.299 20.3242 25.9923 21.2749 25.379C22.2256 24.7657 22.9309 23.746 23.3909 22.32H20.5159C20.4086 22.688 20.1172 23.0407 19.6419 23.378C19.1666 23.7 18.5992 23.861 17.9399 23.861C17.0199 23.861 16.3146 23.6233 15.8239 23.148C15.3332 22.6727 15.0649 21.906 15.0189 20.848ZM28.5709 19.744L24.2929 26H27.9499L30.4339 22.251L32.9179 26H36.6439L32.2509 19.675L36.1609 14.109H32.5499L30.4799 17.214L28.3869 14.109H24.6609L28.5709 19.744ZM42.0285 14.109V10.544H38.7625V14.109H36.7845V16.294H38.7625V23.309C38.7625 23.907 38.8621 24.39 39.0615 24.758C39.2608 25.126 39.5291 25.4097 39.8665 25.609C40.2191 25.8083 40.6178 25.9387 41.0625 26C41.5225 26.0767 42.0055 26.115 42.5115 26.115C42.8335 26.115 43.1631 26.1073 43.5005 26.092C43.8378 26.0767 44.1445 26.046 44.4205 26V23.47C44.2671 23.5007 44.1061 23.5237 43.9375 23.539C43.7688 23.5543 43.5925 23.562 43.4085 23.562C42.8565 23.562 42.4885 23.47 42.3045 23.286C42.1205 23.102 42.0285 22.734 42.0285 22.182V16.294H44.4205V14.109H42.0285ZM45.9744 14.109V26H49.2404V20.641C49.2404 20.1043 49.2941 19.606 49.4014 19.146C49.5087 18.686 49.6851 18.2873 49.9304 17.95C50.1911 17.5973 50.5284 17.3213 50.9424 17.122C51.3564 16.9227 51.8624 16.823 52.4604 16.823C52.6597 16.823 52.8667 16.8383 53.0814 16.869C53.2961 16.8843 53.4801 16.9073 53.6334 16.938V13.902C53.3727 13.8253 53.1351 13.787 52.9204 13.787C52.5064 13.787 52.1077 13.8483 51.7244 13.971C51.3411 14.0937 50.9807 14.27 50.6434 14.5C50.3061 14.7147 50.0071 14.983 49.7464 15.305C49.4857 15.6117 49.2787 15.949 49.1254 16.317H49.0794V14.109H45.9744ZM54.7759 17.766C54.8219 16.9993 55.0135 16.363 55.3509 15.857C55.6882 15.351 56.1175 14.9447 56.6389 14.638C57.1602 14.3313 57.7429 14.1167 58.3869 13.994C59.0462 13.856 59.7055 13.787 60.3649 13.787C60.9629 13.787 61.5685 13.833 62.1819 13.925C62.7952 14.0017 63.3549 14.1627 63.8609 14.408C64.3669 14.6533 64.7809 14.9983 65.1029 15.443C65.4249 15.8723 65.5859 16.4473 65.5859 17.168V23.355C65.5859 23.8917 65.6165 24.4053 65.6779 24.896C65.7392 25.3867 65.8465 25.7547 65.9999 26H62.6879C62.6265 25.816 62.5729 25.632 62.5269 25.448C62.4962 25.2487 62.4732 25.0493 62.4579 24.85C61.9365 25.3867 61.3232 25.7623 60.6179 25.977C59.9125 26.1917 59.1919 26.299 58.4559 26.299C57.8885 26.299 57.3595 26.23 56.8689 26.092C56.3782 25.954 55.9489 25.7393 55.5809 25.448C55.2129 25.1567 54.9215 24.7887 54.7069 24.344C54.5075 23.8993 54.4079 23.3703 54.4079 22.757C54.4079 22.0823 54.5229 21.5303 54.7529 21.101C54.9982 20.6563 55.3049 20.3037 55.6729 20.043C56.0562 19.7823 56.4855 19.5907 56.9609 19.468C57.4515 19.33 57.9422 19.2227 58.4329 19.146C58.9235 19.0693 59.4065 19.008 59.8819 18.962C60.3572 18.916 60.7789 18.847 61.1469 18.755C61.5149 18.663 61.8062 18.5327 62.0209 18.364C62.2355 18.18 62.3352 17.9193 62.3199 17.582C62.3199 17.2293 62.2585 16.9533 62.1359 16.754C62.0285 16.5393 61.8752 16.3783 61.6759 16.271C61.4919 16.1483 61.2695 16.0717 61.0089 16.041C60.7635 15.995 60.4952 15.972 60.2039 15.972C59.5599 15.972 59.0539 16.11 58.6859 16.386C58.3179 16.662 58.1032 17.122 58.0419 17.766H54.7759ZM62.3199 20.181C62.1819 20.3037 62.0055 20.4033 61.7909 20.48C61.5915 20.5413 61.3692 20.595 61.1239 20.641C60.8939 20.687 60.6485 20.7253 60.3879 20.756C60.1272 20.7867 59.8665 20.825 59.6059 20.871C59.3605 20.917 59.1152 20.9783 58.8699 21.055C58.6399 21.1317 58.4329 21.239 58.2489 21.377C58.0802 21.4997 57.9422 21.6607 57.8349 21.86C57.7275 22.0593 57.6739 22.3123 57.6739 22.619C57.6739 22.9103 57.7275 23.1557 57.8349 23.355C57.9422 23.5543 58.0879 23.7153 58.2719 23.838C58.4559 23.9453 58.6705 24.022 58.9159 24.068C59.1612 24.114 59.4142 24.137 59.6749 24.137C60.3189 24.137 60.8172 24.0297 61.1699 23.815C61.5225 23.6003 61.7832 23.3473 61.9519 23.056C62.1205 22.7493 62.2202 22.4427 62.2509 22.136C62.2969 21.8293 62.3199 21.584 62.3199 21.4V20.181Z" fill="white"/>
<path d="M29.6062 70V31.9606H23.4655C23.2482 33.4097 22.7953 34.6234 22.107 35.6015C21.4186 36.5797 20.5673 37.3767 19.5529 37.9926C18.5747 38.5722 17.4517 38.9888 16.1837 39.2424C14.9519 39.4598 13.6658 39.5504 12.3254 39.5141V45.3287H21.8896V70H29.6062ZM65.671 38.3186V31.9606H44.4233L40.6737 52.991H47.6295C48.3902 51.9403 49.2054 51.1796 50.0748 50.7086C50.9443 50.2014 52.0674 49.9478 53.4441 49.9478C54.4947 49.9478 55.4185 50.1289 56.2155 50.4912C57.0125 50.8535 57.7008 51.3607 58.2805 52.0128C58.8601 52.6649 59.2949 53.4257 59.5847 54.2952C59.8745 55.1646 60.0194 56.0884 60.0194 57.0666C60.0194 58.0085 59.8564 58.9323 59.5304 59.838C59.2405 60.7075 58.8058 61.4864 58.2261 62.1748C57.6827 62.8269 56.9944 63.3703 56.1612 63.805C55.3641 64.2035 54.4584 64.4028 53.4441 64.4028C51.7051 64.4028 50.2741 63.8956 49.151 62.8812C48.028 61.8306 47.3759 60.4358 47.1947 58.6969H39.4782C39.5144 60.6894 39.9129 62.4465 40.6737 63.968C41.4707 65.4534 42.5213 66.7033 43.8255 67.7176C45.1297 68.732 46.6151 69.4928 48.2816 70C49.9843 70.471 51.7594 70.7064 53.6071 70.7064C55.5272 70.7427 57.3386 70.4347 59.0413 69.7826C60.744 69.0943 62.2293 68.1343 63.4973 66.9025C64.8015 65.6708 65.834 64.2216 66.5948 62.5551C67.3556 60.8524 67.736 59.0229 67.736 57.0666C67.736 55.2914 67.4643 53.6249 66.9209 52.0671C66.4137 50.4731 65.6529 49.0964 64.6385 47.9371C63.6603 46.7779 62.4467 45.854 60.9976 45.1657C59.5485 44.4774 57.882 44.1332 55.9981 44.1332C54.4765 44.1332 53.118 44.3687 51.9225 44.8397C50.727 45.2744 49.6039 46.0171 48.5533 47.0677L48.4446 46.959L49.9662 38.3186H65.671Z" fill="white"/>
<path d="M85.132 46.268C85.132 45.9733 85.1407 45.644 85.158 45.28C85.1927 44.916 85.2707 44.578 85.392 44.266C85.5133 43.954 85.6867 43.694 85.912 43.486C86.1547 43.278 86.484 43.174 86.9 43.174C87.2813 43.174 87.576 43.2953 87.784 43.538C88.0093 43.7633 88.174 44.0407 88.278 44.37C88.382 44.682 88.4427 45.02 88.46 45.384C88.4947 45.7307 88.512 46.034 88.512 46.294C88.512 46.5713 88.4947 46.892 88.46 47.256C88.4427 47.6027 88.3733 47.9407 88.252 48.27C88.148 48.582 87.9747 48.8507 87.732 49.076C87.5067 49.3013 87.1947 49.414 86.796 49.414C86.38 49.414 86.0593 49.3013 85.834 49.076C85.6087 48.8507 85.444 48.582 85.34 48.27C85.236 47.9407 85.1753 47.594 85.158 47.23C85.1407 46.866 85.132 46.5453 85.132 46.268ZM82.48 46.242C82.48 46.9527 82.5493 47.62 82.688 48.244C82.844 48.868 83.0867 49.414 83.416 49.882C83.7627 50.3327 84.2047 50.688 84.742 50.948C85.2967 51.208 85.9727 51.338 86.77 51.338C87.5327 51.338 88.1913 51.2167 88.746 50.974C89.3007 50.714 89.7513 50.3587 90.098 49.908C90.462 49.4573 90.7307 48.9287 90.904 48.322C91.0773 47.7153 91.164 47.0567 91.164 46.346C91.164 45.6353 91.0947 44.968 90.956 44.344C90.8173 43.72 90.5747 43.1827 90.228 42.732C89.8987 42.264 89.4653 41.9 88.928 41.64C88.3907 41.3627 87.7147 41.224 86.9 41.224C86.1373 41.224 85.4787 41.354 84.924 41.614C84.3693 41.874 83.91 42.2293 83.546 42.68C83.182 43.1307 82.9133 43.6593 82.74 44.266C82.5667 44.8727 82.48 45.5313 82.48 46.242ZM84.482 32.228L73.718 51.546H75.98L86.692 32.228H84.482ZM71.716 37.636C71.716 37.3413 71.7247 37.0033 71.742 36.622C71.7767 36.2407 71.8547 35.8853 71.976 35.556C72.0973 35.2267 72.2707 34.9493 72.496 34.724C72.7387 34.4987 73.068 34.386 73.484 34.386C73.8653 34.386 74.16 34.5073 74.368 34.75C74.5933 34.9927 74.758 35.2873 74.862 35.634C74.966 35.9807 75.0267 36.3447 75.044 36.726C75.0787 37.09 75.096 37.402 75.096 37.662C75.096 37.9393 75.0787 38.2513 75.044 38.598C75.0267 38.9273 74.9573 39.248 74.836 39.56C74.732 39.8547 74.5587 40.106 74.316 40.314C74.0907 40.522 73.7787 40.626 73.38 40.626C72.964 40.626 72.6433 40.522 72.418 40.314C72.1927 40.106 72.028 39.8547 71.924 39.56C71.82 39.248 71.7593 38.9187 71.742 38.572C71.7247 38.2253 71.716 37.9133 71.716 37.636ZM69.064 37.584C69.064 38.2947 69.1333 38.962 69.272 39.586C69.428 40.1927 69.6707 40.7213 70 41.172C70.3467 41.6053 70.7887 41.952 71.326 42.212C71.8807 42.4547 72.5567 42.576 73.354 42.576C74.1167 42.576 74.7753 42.4547 75.33 42.212C75.8847 41.9693 76.3353 41.6313 76.682 41.198C77.046 40.7647 77.3147 40.2533 77.488 39.664C77.6613 39.0573 77.748 38.3987 77.748 37.688C77.748 36.9773 77.6787 36.3013 77.54 35.66C77.4013 35.0187 77.1587 34.464 76.812 33.996C76.4827 33.5107 76.0493 33.1293 75.512 32.852C74.9747 32.5747 74.2987 32.436 73.484 32.436C72.7213 32.436 72.0627 32.5747 71.508 32.852C70.9533 33.112 70.494 33.476 70.13 33.944C69.766 34.412 69.4973 34.958 69.324 35.582C69.1507 36.206 69.064 36.8733 69.064 37.584Z" fill="white"/>
<path d="M14.68 86.292C14.68 85.7547 14.732 85.226 14.836 84.706C14.94 84.186 15.1133 83.7267 15.356 83.328C15.616 82.9293 15.954 82.6087 16.37 82.366C16.786 82.106 17.306 81.976 17.93 81.976C18.554 81.976 19.074 82.106 19.49 82.366C19.9233 82.6087 20.2613 82.9293 20.504 83.328C20.764 83.7267 20.946 84.186 21.05 84.706C21.154 85.226 21.206 85.7547 21.206 86.292C21.206 86.8293 21.154 87.358 21.05 87.878C20.946 88.3807 20.764 88.84 20.504 89.256C20.2613 89.6547 19.9233 89.9753 19.49 90.218C19.074 90.4607 18.554 90.582 17.93 90.582C17.306 90.582 16.786 90.4607 16.37 90.218C15.954 89.9753 15.616 89.6547 15.356 89.256C15.1133 88.84 14.94 88.3807 14.836 87.878C14.732 87.358 14.68 86.8293 14.68 86.292ZM10.988 86.292C10.988 87.3667 11.1527 88.3373 11.482 89.204C11.8113 90.0707 12.2793 90.816 12.886 91.44C13.4927 92.0467 14.2207 92.5147 15.07 92.844C15.9193 93.1733 16.8727 93.338 17.93 93.338C18.9873 93.338 19.9407 93.1733 20.79 92.844C21.6567 92.5147 22.3933 92.0467 23 91.44C23.6067 90.816 24.0747 90.0707 24.404 89.204C24.7333 88.3373 24.898 87.3667 24.898 86.292C24.898 85.2173 24.7333 84.2467 24.404 83.38C24.0747 82.496 23.6067 81.7507 23 81.144C22.3933 80.52 21.6567 80.0433 20.79 79.714C19.9407 79.3673 18.9873 79.194 17.93 79.194C16.8727 79.194 15.9193 79.3673 15.07 79.714C14.2207 80.0433 13.4927 80.52 12.886 81.144C12.2793 81.7507 11.8113 82.496 11.482 83.38C11.1527 84.2467 10.988 85.2173 10.988 86.292ZM35.9825 82.028H31.7965V93H28.1045V82.028H25.8945V79.558H28.1045V78.518C28.1045 77.322 28.4772 76.3427 29.2225 75.58C29.9679 74.8173 31.0945 74.436 32.6025 74.436C32.9319 74.436 33.2612 74.4533 33.5905 74.488C33.9199 74.5053 34.2405 74.5227 34.5525 74.54V77.296C34.1019 77.244 33.6512 77.218 33.2005 77.218C32.6979 77.218 32.3339 77.3393 32.1085 77.582C31.9005 77.8073 31.7965 78.1973 31.7965 78.752V79.558H35.9825V78.518C35.9825 77.322 36.3552 76.3427 37.1005 75.58C37.8459 74.8173 38.9725 74.436 40.4805 74.436C40.8099 74.436 41.1392 74.4533 41.4685 74.488C41.7979 74.5053 42.1185 74.5227 42.4305 74.54V77.296C41.9799 77.244 41.5292 77.218 41.0785 77.218C40.5759 77.218 40.2119 77.3393 39.9865 77.582C39.7785 77.8073 39.6745 78.1973 39.6745 78.752V79.558H42.2225V82.028H39.6745V93H35.9825V82.028Z" fill="white"/>
<path d="M49.02 76.98V74.72H47.96V76.98L45.84 76.18L45.48 77.14L47.6 77.9L46.3 79.72L47.2 80.34L48.5 78.42L49.88 80.34L50.7 79.72L49.38 77.9L51.56 77.14L51.16 76.18L49.02 76.98Z" fill="white"/>
</svg>
