<svg width="261" height="261" viewBox="0 0 261 261" fill="none" xmlns="http://www.w3.org/2000/svg">
<g clip-path="url(#clip0_1558_387)">
<path d="M200.14 115.049C200.14 145.95 200.14 176.851 200.14 207.752C200.14 212.082 200.14 216.378 200.14 220.708C200.834 220.014 201.528 219.32 202.189 218.659C185.929 218.659 169.669 218.659 153.441 218.659C127.498 218.659 101.554 218.659 75.6102 218.659C69.6282 218.659 63.6133 218.659 57.6313 218.659C58.3254 219.353 59.0194 220.047 59.6804 220.708C59.6804 189.807 59.6804 158.906 59.6804 128.004C59.6804 123.675 59.6804 119.379 59.6804 115.049C59.0194 115.743 58.3254 116.437 57.6644 117.131C73.9247 117.131 90.1849 117.131 106.412 117.131C132.356 117.131 158.3 117.131 184.243 117.131C190.225 117.131 196.24 117.131 202.222 117.131C204.866 117.131 204.899 113 202.222 113C185.962 113 169.702 113 153.474 113C127.531 113 101.587 113 75.6432 113C69.6282 113 63.6463 113 57.6644 113C56.5407 113 55.5823 113.958 55.5823 115.049C55.5823 145.95 55.5823 176.851 55.5823 207.752C55.5823 212.082 55.5823 216.378 55.5823 220.708C55.5823 221.831 56.5407 222.757 57.6313 222.757C73.8916 222.757 90.1519 222.757 106.379 222.757C132.323 222.757 158.267 222.757 184.21 222.757C190.192 222.757 196.207 222.757 202.189 222.757C203.313 222.757 204.238 221.798 204.238 220.708C204.238 189.807 204.238 158.906 204.238 128.004C204.238 123.675 204.238 119.379 204.238 115.049C204.271 112.405 200.14 112.405 200.14 115.049Z" fill="#FF4693"/>
<path d="M188.474 196.516C188.474 200.316 188.474 204.117 188.474 207.918C189.168 207.224 189.862 206.53 190.523 205.869C159.126 205.869 127.762 205.869 96.3651 205.869C87.9045 205.869 79.4439 205.869 70.9832 205.869C71.6773 206.563 72.3713 207.257 73.0323 207.918C73.0323 184.287 73.0323 160.657 73.0323 137.06C73.0323 133.623 73.0323 130.186 73.0323 126.749C72.3383 127.443 71.6442 128.137 70.9832 128.798C105.883 128.798 140.783 128.798 175.684 128.798C180.641 128.798 185.565 128.798 190.523 128.798C189.829 128.104 189.135 127.409 188.474 126.749C188.474 141.092 188.474 155.435 188.474 169.779C188.474 172.423 192.605 172.456 192.605 169.779C192.605 155.435 192.605 141.092 192.605 126.749C192.605 125.625 191.646 124.666 190.556 124.666C155.656 124.666 120.756 124.666 85.8554 124.666C80.898 124.666 75.9737 124.666 71.0163 124.666C69.8926 124.666 68.9672 125.625 68.9672 126.749C68.9672 150.379 68.9672 174.009 68.9672 197.606C68.9672 201.043 68.9672 204.481 68.9672 207.918C68.9672 209.041 69.9257 209.967 71.0163 209.967C102.942 209.967 134.868 209.967 166.826 209.967C174.758 209.967 182.657 209.967 190.589 209.967C191.712 209.967 192.638 209.008 192.638 207.918C192.638 204.117 192.638 200.316 192.638 196.516C192.605 193.872 188.474 193.872 188.474 196.516Z" fill="#FF4693"/>
<path d="M39.983 222.79C45.1387 222.79 50.2944 222.79 55.45 222.79C56.1771 222.79 56.9042 222.79 57.6313 222.79C60.2752 222.79 60.3083 218.659 57.6313 218.659C52.4756 218.659 47.3199 218.659 42.1642 218.659C41.4371 218.659 40.71 218.659 39.983 218.659C37.339 218.659 37.339 222.79 39.983 222.79Z" fill="#FF4693"/>
<path d="M39.983 212.214C45.1387 212.214 50.2944 212.214 55.45 212.214C56.1771 212.214 56.9042 212.214 57.6313 212.214C60.2752 212.214 60.3083 208.083 57.6313 208.083C52.4756 208.083 47.3199 208.083 42.1642 208.083C41.4371 208.083 40.71 208.083 39.983 208.083C37.339 208.083 37.339 212.214 39.983 212.214Z" fill="#FF4693"/>
<path d="M39.983 201.638C45.1387 201.638 50.2944 201.638 55.45 201.638C56.1771 201.638 56.9042 201.638 57.6313 201.638C60.2752 201.638 60.3083 197.507 57.6313 197.507C52.4756 197.507 47.3199 197.507 42.1642 197.507C41.4371 197.507 40.71 197.507 39.983 197.507C37.339 197.507 37.339 201.638 39.983 201.638Z" fill="#FF4693"/>
<path d="M39.983 191.096C45.1387 191.096 50.2944 191.096 55.45 191.096C56.1771 191.096 56.9042 191.096 57.6313 191.096C60.2752 191.096 60.3083 186.964 57.6313 186.964C52.4756 186.964 47.3199 186.964 42.1642 186.964C41.4371 186.964 40.71 186.964 39.983 186.964C37.339 186.964 37.339 191.096 39.983 191.096Z" fill="#FF4693"/>
<path d="M39.983 180.52C45.1387 180.52 50.2944 180.52 55.45 180.52C56.1771 180.52 56.9042 180.52 57.6313 180.52C60.2752 180.52 60.3083 176.389 57.6313 176.389C52.4756 176.389 47.3199 176.389 42.1642 176.389C41.4371 176.389 40.71 176.389 39.983 176.389C37.339 176.389 37.339 180.52 39.983 180.52Z" fill="#FF4693"/>
<path d="M39.983 169.944C45.1387 169.944 50.2944 169.944 55.45 169.944C56.1771 169.944 56.9042 169.944 57.6313 169.944C60.2752 169.944 60.3083 165.813 57.6313 165.813C52.4756 165.813 47.3199 165.813 42.1642 165.813C41.4371 165.813 40.71 165.813 39.983 165.813C37.339 165.813 37.339 169.944 39.983 169.944Z" fill="#FF4693"/>
<path d="M39.983 159.401C45.1387 159.401 50.2944 159.401 55.45 159.401C56.1771 159.401 56.9042 159.401 57.6313 159.401C60.2752 159.401 60.3083 155.27 57.6313 155.27C52.4756 155.27 47.3199 155.27 42.1642 155.27C41.4371 155.27 40.71 155.27 39.983 155.27C37.339 155.27 37.339 159.401 39.983 159.401Z" fill="#FF4693"/>
<path d="M39.983 148.825C45.1387 148.825 50.2944 148.825 55.45 148.825C56.1771 148.825 56.9042 148.825 57.6313 148.825C60.2752 148.825 60.3083 144.694 57.6313 144.694C52.4756 144.694 47.3199 144.694 42.1642 144.694C41.4371 144.694 40.71 144.694 39.983 144.694C37.339 144.694 37.339 148.825 39.983 148.825Z" fill="#FF4693"/>
<path d="M39.983 138.25C45.1387 138.25 50.2944 138.25 55.45 138.25C56.1771 138.25 56.9042 138.25 57.6313 138.25C60.2752 138.25 60.3083 134.119 57.6313 134.119C52.4756 134.119 47.3199 134.119 42.1642 134.119C41.4371 134.119 40.71 134.119 39.983 134.119C37.339 134.119 37.339 138.25 39.983 138.25Z" fill="#FF4693"/>
<path d="M39.983 127.707C45.1387 127.707 50.2944 127.707 55.45 127.707C56.1771 127.707 56.9042 127.707 57.6313 127.707C60.2752 127.707 60.3083 123.576 57.6313 123.576C52.4756 123.576 47.3199 123.576 42.1642 123.576C41.4371 123.576 40.71 123.576 39.983 123.576C37.339 123.576 37.339 127.707 39.983 127.707Z" fill="#FF4693"/>
<path d="M39.983 117.131C45.1387 117.131 50.2944 117.131 55.45 117.131C56.1771 117.131 56.9042 117.131 57.6313 117.131C60.2752 117.131 60.3083 113 57.6313 113C52.5087 113 47.353 113 42.1973 113C41.4371 113 40.71 113 39.983 113C37.339 113 37.339 117.131 39.983 117.131Z" fill="#FF4693"/>
<path d="M220.267 113C215.111 113 209.956 113 204.8 113C204.073 113 203.346 113 202.619 113C199.975 113 199.942 117.131 202.619 117.131C207.774 117.131 212.93 117.131 218.086 117.131C218.813 117.131 219.54 117.131 220.267 117.131C222.911 117.131 222.911 113 220.267 113Z" fill="#FF4693"/>
<path d="M220.267 123.576C215.111 123.576 209.956 123.576 204.8 123.576C204.073 123.576 203.346 123.576 202.619 123.576C199.975 123.576 199.942 127.707 202.619 127.707C207.774 127.707 212.93 127.707 218.086 127.707C218.813 127.707 219.54 127.707 220.267 127.707C222.911 127.707 222.911 123.576 220.267 123.576Z" fill="#FF4693"/>
<path d="M220.267 134.119C215.111 134.119 209.956 134.119 204.8 134.119C204.073 134.119 203.346 134.119 202.619 134.119C199.975 134.119 199.942 138.25 202.619 138.25C207.774 138.25 212.93 138.25 218.086 138.25C218.813 138.25 219.54 138.25 220.267 138.25C222.911 138.25 222.911 134.119 220.267 134.119Z" fill="#FF4693"/>
<path d="M220.267 144.694C215.111 144.694 209.956 144.694 204.8 144.694C204.073 144.694 203.346 144.694 202.619 144.694C199.975 144.694 199.942 148.825 202.619 148.825C207.774 148.825 212.93 148.825 218.086 148.825C218.813 148.825 219.54 148.825 220.267 148.825C222.911 148.825 222.911 144.694 220.267 144.694Z" fill="#FF4693"/>
<path d="M220.267 155.27C215.111 155.27 209.956 155.27 204.8 155.27C204.073 155.27 203.346 155.27 202.619 155.27C199.975 155.27 199.942 159.401 202.619 159.401C207.774 159.401 212.93 159.401 218.086 159.401C218.813 159.401 219.54 159.401 220.267 159.401C222.911 159.401 222.911 155.27 220.267 155.27Z" fill="#FF4693"/>
<path d="M220.267 165.813C215.111 165.813 209.956 165.813 204.8 165.813C204.073 165.813 203.346 165.813 202.619 165.813C199.975 165.813 199.942 169.944 202.619 169.944C207.774 169.944 212.93 169.944 218.086 169.944C218.813 169.944 219.54 169.944 220.267 169.944C222.911 169.944 222.911 165.813 220.267 165.813Z" fill="#FF4693"/>
<path d="M220.267 176.389C215.111 176.389 209.956 176.389 204.8 176.389C204.073 176.389 203.346 176.389 202.619 176.389C199.975 176.389 199.942 180.52 202.619 180.52C207.774 180.52 212.93 180.52 218.086 180.52C218.813 180.52 219.54 180.52 220.267 180.52C222.911 180.52 222.911 176.389 220.267 176.389Z" fill="#FF4693"/>
<path d="M220.267 186.964C215.111 186.964 209.956 186.964 204.8 186.964C204.073 186.964 203.346 186.964 202.619 186.964C199.975 186.964 199.942 191.096 202.619 191.096C207.774 191.096 212.93 191.096 218.086 191.096C218.813 191.096 219.54 191.096 220.267 191.096C222.911 191.096 222.911 186.964 220.267 186.964Z" fill="#FF4693"/>
<path d="M220.267 197.507C215.111 197.507 209.956 197.507 204.8 197.507C204.073 197.507 203.346 197.507 202.619 197.507C199.975 197.507 199.942 201.638 202.619 201.638C207.774 201.638 212.93 201.638 218.086 201.638C218.813 201.638 219.54 201.638 220.267 201.638C222.911 201.638 222.911 197.507 220.267 197.507Z" fill="#FF4693"/>
<path d="M220.267 208.083C215.111 208.083 209.956 208.083 204.8 208.083C204.073 208.083 203.346 208.083 202.619 208.083C199.975 208.083 199.942 212.214 202.619 212.214C207.774 212.214 212.93 212.214 218.086 212.214C218.813 212.214 219.54 212.214 220.267 212.214C222.911 212.214 222.911 208.083 220.267 208.083Z" fill="#FF4693"/>
<path d="M220.267 218.659C215.111 218.659 209.956 218.659 204.8 218.659C204.073 218.659 203.346 218.659 202.619 218.659C199.975 218.659 199.942 222.79 202.619 222.79C207.774 222.79 212.93 222.79 218.086 222.79C218.813 222.79 219.54 222.79 220.267 222.79C222.911 222.79 222.911 218.659 220.267 218.659Z" fill="#FF4693"/>
</g>
<path d="M0 0H157L0 146V0Z" fill="#3DA376"/>
<path d="M20.3319 18.778H15.0189C15.0342 18.548 15.0802 18.2873 15.1569 17.996C15.2489 17.7047 15.3946 17.4287 15.5939 17.168C15.8086 16.9073 16.0846 16.6927 16.4219 16.524C16.7746 16.34 17.2116 16.248 17.7329 16.248C18.5302 16.248 19.1206 16.4627 19.5039 16.892C19.9026 17.3213 20.1786 17.95 20.3319 18.778ZM15.0189 20.848H23.5979C23.6592 19.928 23.5826 19.0463 23.3679 18.203C23.1532 17.3597 22.8006 16.6083 22.3099 15.949C21.8346 15.2897 21.2212 14.7683 20.4699 14.385C19.7186 13.9863 18.8369 13.787 17.8249 13.787C16.9202 13.787 16.0922 13.948 15.3409 14.27C14.6049 14.592 13.9686 15.0367 13.4319 15.604C12.8952 16.156 12.4812 16.8153 12.1899 17.582C11.8986 18.3487 11.7529 19.1767 11.7529 20.066C11.7529 20.986 11.8909 21.8293 12.1669 22.596C12.4582 23.3627 12.8646 24.022 13.3859 24.574C13.9072 25.126 14.5436 25.5553 15.2949 25.862C16.0462 26.1533 16.8896 26.299 17.8249 26.299C19.1742 26.299 20.3242 25.9923 21.2749 25.379C22.2256 24.7657 22.9309 23.746 23.3909 22.32H20.5159C20.4086 22.688 20.1172 23.0407 19.6419 23.378C19.1666 23.7 18.5992 23.861 17.9399 23.861C17.0199 23.861 16.3146 23.6233 15.8239 23.148C15.3332 22.6727 15.0649 21.906 15.0189 20.848ZM28.5709 19.744L24.2929 26H27.9499L30.4339 22.251L32.9179 26H36.6439L32.2509 19.675L36.1609 14.109H32.5499L30.4799 17.214L28.3869 14.109H24.6609L28.5709 19.744ZM42.0285 14.109V10.544H38.7625V14.109H36.7845V16.294H38.7625V23.309C38.7625 23.907 38.8621 24.39 39.0615 24.758C39.2608 25.126 39.5291 25.4097 39.8665 25.609C40.2191 25.8083 40.6178 25.9387 41.0625 26C41.5225 26.0767 42.0055 26.115 42.5115 26.115C42.8335 26.115 43.1631 26.1073 43.5005 26.092C43.8378 26.0767 44.1445 26.046 44.4205 26V23.47C44.2671 23.5007 44.1061 23.5237 43.9375 23.539C43.7688 23.5543 43.5925 23.562 43.4085 23.562C42.8565 23.562 42.4885 23.47 42.3045 23.286C42.1205 23.102 42.0285 22.734 42.0285 22.182V16.294H44.4205V14.109H42.0285ZM45.9744 14.109V26H49.2404V20.641C49.2404 20.1043 49.2941 19.606 49.4014 19.146C49.5087 18.686 49.6851 18.2873 49.9304 17.95C50.1911 17.5973 50.5284 17.3213 50.9424 17.122C51.3564 16.9227 51.8624 16.823 52.4604 16.823C52.6597 16.823 52.8667 16.8383 53.0814 16.869C53.2961 16.8843 53.4801 16.9073 53.6334 16.938V13.902C53.3727 13.8253 53.1351 13.787 52.9204 13.787C52.5064 13.787 52.1077 13.8483 51.7244 13.971C51.3411 14.0937 50.9807 14.27 50.6434 14.5C50.3061 14.7147 50.0071 14.983 49.7464 15.305C49.4857 15.6117 49.2787 15.949 49.1254 16.317H49.0794V14.109H45.9744ZM54.7759 17.766C54.8219 16.9993 55.0135 16.363 55.3509 15.857C55.6882 15.351 56.1175 14.9447 56.6389 14.638C57.1602 14.3313 57.7429 14.1167 58.3869 13.994C59.0462 13.856 59.7055 13.787 60.3649 13.787C60.9629 13.787 61.5685 13.833 62.1819 13.925C62.7952 14.0017 63.3549 14.1627 63.8609 14.408C64.3669 14.6533 64.7809 14.9983 65.1029 15.443C65.4249 15.8723 65.5859 16.4473 65.5859 17.168V23.355C65.5859 23.8917 65.6165 24.4053 65.6779 24.896C65.7392 25.3867 65.8465 25.7547 65.9999 26H62.6879C62.6265 25.816 62.5729 25.632 62.5269 25.448C62.4962 25.2487 62.4732 25.0493 62.4579 24.85C61.9365 25.3867 61.3232 25.7623 60.6179 25.977C59.9125 26.1917 59.1919 26.299 58.4559 26.299C57.8885 26.299 57.3595 26.23 56.8689 26.092C56.3782 25.954 55.9489 25.7393 55.5809 25.448C55.2129 25.1567 54.9215 24.7887 54.7069 24.344C54.5075 23.8993 54.4079 23.3703 54.4079 22.757C54.4079 22.0823 54.5229 21.5303 54.7529 21.101C54.9982 20.6563 55.3049 20.3037 55.6729 20.043C56.0562 19.7823 56.4855 19.5907 56.9609 19.468C57.4515 19.33 57.9422 19.2227 58.4329 19.146C58.9235 19.0693 59.4065 19.008 59.8819 18.962C60.3572 18.916 60.7789 18.847 61.1469 18.755C61.5149 18.663 61.8062 18.5327 62.0209 18.364C62.2355 18.18 62.3352 17.9193 62.3199 17.582C62.3199 17.2293 62.2585 16.9533 62.1359 16.754C62.0285 16.5393 61.8752 16.3783 61.6759 16.271C61.4919 16.1483 61.2695 16.0717 61.0089 16.041C60.7635 15.995 60.4952 15.972 60.2039 15.972C59.5599 15.972 59.0539 16.11 58.6859 16.386C58.3179 16.662 58.1032 17.122 58.0419 17.766H54.7759ZM62.3199 20.181C62.1819 20.3037 62.0055 20.4033 61.7909 20.48C61.5915 20.5413 61.3692 20.595 61.1239 20.641C60.8939 20.687 60.6485 20.7253 60.3879 20.756C60.1272 20.7867 59.8665 20.825 59.6059 20.871C59.3605 20.917 59.1152 20.9783 58.8699 21.055C58.6399 21.1317 58.4329 21.239 58.2489 21.377C58.0802 21.4997 57.9422 21.6607 57.8349 21.86C57.7275 22.0593 57.6739 22.3123 57.6739 22.619C57.6739 22.9103 57.7275 23.1557 57.8349 23.355C57.9422 23.5543 58.0879 23.7153 58.2719 23.838C58.4559 23.9453 58.6705 24.022 58.9159 24.068C59.1612 24.114 59.4142 24.137 59.6749 24.137C60.3189 24.137 60.8172 24.0297 61.1699 23.815C61.5225 23.6003 61.7832 23.3473 61.9519 23.056C62.1205 22.7493 62.2202 22.4427 62.2509 22.136C62.2969 21.8293 62.3199 21.584 62.3199 21.4V20.181Z" fill="white"/>
<path d="M10.3148 46.5786H17.7053C17.7053 45.5642 17.7958 44.5498 17.977 43.5355C18.1943 42.4848 18.5385 41.5429 19.0095 40.7097C19.4804 39.8402 20.0963 39.1519 20.8571 38.6447C21.6541 38.1013 22.6142 37.8296 23.7372 37.8296C25.4037 37.8296 26.7623 38.3549 27.8129 39.4055C28.8997 40.4199 29.4431 41.8509 29.4431 43.6985C29.4431 44.8578 29.1714 45.8903 28.628 46.796C28.1208 47.7017 27.4687 48.5168 26.6717 49.2414C25.9109 49.9659 25.0596 50.6361 24.1176 51.252C23.1757 51.8317 22.2881 52.4113 21.4549 52.991C19.8246 54.114 18.2668 55.219 16.7815 56.3058C15.3323 57.3927 14.0644 58.5882 12.9775 59.8924C11.8907 61.1604 11.0212 62.6095 10.3691 64.2398C9.75322 65.87 9.44529 67.7901 9.44529 70H37.3771V63.3703H19.3899C20.3318 62.0661 21.4186 60.9249 22.6504 59.9467C23.8821 58.9686 25.1501 58.0629 26.4543 57.2296C27.7585 56.3602 29.0446 55.4907 30.3126 54.6212C31.6168 53.7518 32.7761 52.7917 33.7905 51.7411C34.8049 50.6543 35.62 49.4225 36.2359 48.0458C36.8518 46.6692 37.1597 45.0208 37.1597 43.1007C37.1597 41.2531 36.7974 39.5866 36.0729 38.1013C35.3845 36.6159 34.4426 35.366 33.2471 34.3517C32.0516 33.3373 30.6568 32.5584 29.0627 32.015C27.5049 31.4715 25.8566 31.1998 24.1176 31.1998C21.8353 31.1998 19.8065 31.5983 18.0313 32.3954C16.2924 33.1561 14.8433 34.243 13.684 35.6559C12.5247 37.0325 11.6552 38.6628 11.0755 40.5466C10.4959 42.3943 10.2423 44.4049 10.3148 46.5786ZM65.671 38.3186V31.9606H44.4233L40.6737 52.991H47.6295C48.3902 51.9404 49.2054 51.1796 50.0748 50.7086C50.9443 50.2014 52.0674 49.9478 53.4441 49.9478C54.4947 49.9478 55.4185 50.129 56.2155 50.4912C57.0125 50.8535 57.7008 51.3607 58.2805 52.0128C58.8601 52.6649 59.2949 53.4257 59.5847 54.2952C59.8745 55.1646 60.0194 56.0885 60.0194 57.0666C60.0194 58.0085 59.8564 58.9324 59.5304 59.8381C59.2405 60.7075 58.8058 61.4864 58.2261 62.1748C57.6827 62.8269 56.9944 63.3703 56.1612 63.805C55.3641 64.2035 54.4584 64.4028 53.4441 64.4028C51.7051 64.4028 50.2741 63.8956 49.151 62.8812C48.028 61.8306 47.3759 60.4358 47.1947 58.6969H39.4782C39.5144 60.6894 39.9129 62.4465 40.6737 63.9681C41.4707 65.4534 42.5213 66.7033 43.8255 67.7177C45.1297 68.732 46.6151 69.4928 48.2816 70C49.9843 70.471 51.7594 70.7065 53.6071 70.7065C55.5272 70.7427 57.3386 70.4348 59.0413 69.7826C60.744 69.0943 62.2293 68.1343 63.4973 66.9025C64.8015 65.6708 65.834 64.2216 66.5948 62.5552C67.3556 60.8524 67.736 59.0229 67.736 57.0666C67.736 55.2914 67.4643 53.625 66.9209 52.0672C66.4137 50.4731 65.6529 49.0965 64.6385 47.9372C63.6603 46.7779 62.4467 45.8541 60.9976 45.1657C59.5485 44.4774 57.882 44.1332 55.9981 44.1332C54.4765 44.1332 53.118 44.3687 51.9225 44.8397C50.727 45.2744 49.6039 46.0171 48.5533 47.0677L48.4446 46.959L49.9662 38.3186H65.671Z" fill="white"/>
<path d="M85.132 46.268C85.132 45.9733 85.1407 45.644 85.158 45.28C85.1927 44.916 85.2707 44.578 85.392 44.266C85.5133 43.954 85.6867 43.694 85.912 43.486C86.1547 43.278 86.484 43.174 86.9 43.174C87.2813 43.174 87.576 43.2953 87.784 43.538C88.0093 43.7633 88.174 44.0407 88.278 44.37C88.382 44.682 88.4427 45.02 88.46 45.384C88.4947 45.7307 88.512 46.034 88.512 46.294C88.512 46.5713 88.4947 46.892 88.46 47.256C88.4427 47.6027 88.3733 47.9407 88.252 48.27C88.148 48.582 87.9747 48.8507 87.732 49.076C87.5067 49.3013 87.1947 49.414 86.796 49.414C86.38 49.414 86.0593 49.3013 85.834 49.076C85.6087 48.8507 85.444 48.582 85.34 48.27C85.236 47.9407 85.1753 47.594 85.158 47.23C85.1407 46.866 85.132 46.5453 85.132 46.268ZM82.48 46.242C82.48 46.9527 82.5493 47.62 82.688 48.244C82.844 48.868 83.0867 49.414 83.416 49.882C83.7627 50.3327 84.2047 50.688 84.742 50.948C85.2967 51.208 85.9727 51.338 86.77 51.338C87.5327 51.338 88.1913 51.2167 88.746 50.974C89.3007 50.714 89.7513 50.3587 90.098 49.908C90.462 49.4573 90.7307 48.9287 90.904 48.322C91.0773 47.7153 91.164 47.0567 91.164 46.346C91.164 45.6353 91.0947 44.968 90.956 44.344C90.8173 43.72 90.5747 43.1827 90.228 42.732C89.8987 42.264 89.4653 41.9 88.928 41.64C88.3907 41.3627 87.7147 41.224 86.9 41.224C86.1373 41.224 85.4787 41.354 84.924 41.614C84.3693 41.874 83.91 42.2293 83.546 42.68C83.182 43.1307 82.9133 43.6593 82.74 44.266C82.5667 44.8727 82.48 45.5313 82.48 46.242ZM84.482 32.228L73.718 51.546H75.98L86.692 32.228H84.482ZM71.716 37.636C71.716 37.3413 71.7247 37.0033 71.742 36.622C71.7767 36.2407 71.8547 35.8853 71.976 35.556C72.0973 35.2267 72.2707 34.9493 72.496 34.724C72.7387 34.4987 73.068 34.386 73.484 34.386C73.8653 34.386 74.16 34.5073 74.368 34.75C74.5933 34.9927 74.758 35.2873 74.862 35.634C74.966 35.9807 75.0267 36.3447 75.044 36.726C75.0787 37.09 75.096 37.402 75.096 37.662C75.096 37.9393 75.0787 38.2513 75.044 38.598C75.0267 38.9273 74.9573 39.248 74.836 39.56C74.732 39.8547 74.5587 40.106 74.316 40.314C74.0907 40.522 73.7787 40.626 73.38 40.626C72.964 40.626 72.6433 40.522 72.418 40.314C72.1927 40.106 72.028 39.8547 71.924 39.56C71.82 39.248 71.7593 38.9187 71.742 38.572C71.7247 38.2253 71.716 37.9133 71.716 37.636ZM69.064 37.584C69.064 38.2947 69.1333 38.962 69.272 39.586C69.428 40.1927 69.6707 40.7213 70 41.172C70.3467 41.6053 70.7887 41.952 71.326 42.212C71.8807 42.4547 72.5567 42.576 73.354 42.576C74.1167 42.576 74.7753 42.4547 75.33 42.212C75.8847 41.9693 76.3353 41.6313 76.682 41.198C77.046 40.7647 77.3147 40.2533 77.488 39.664C77.6613 39.0573 77.748 38.3987 77.748 37.688C77.748 36.9773 77.6787 36.3013 77.54 35.66C77.4013 35.0187 77.1587 34.464 76.812 33.996C76.4827 33.5107 76.0493 33.1293 75.512 32.852C74.9747 32.5747 74.2987 32.436 73.484 32.436C72.7213 32.436 72.0627 32.5747 71.508 32.852C70.9533 33.112 70.494 33.476 70.13 33.944C69.766 34.412 69.4973 34.958 69.324 35.582C69.1507 36.206 69.064 36.8733 69.064 37.584Z" fill="white"/>
<path d="M14.68 86.292C14.68 85.7547 14.732 85.226 14.836 84.706C14.94 84.186 15.1133 83.7267 15.356 83.328C15.616 82.9293 15.954 82.6087 16.37 82.366C16.786 82.106 17.306 81.976 17.93 81.976C18.554 81.976 19.074 82.106 19.49 82.366C19.9233 82.6087 20.2613 82.9293 20.504 83.328C20.764 83.7267 20.946 84.186 21.05 84.706C21.154 85.226 21.206 85.7547 21.206 86.292C21.206 86.8293 21.154 87.358 21.05 87.878C20.946 88.3807 20.764 88.84 20.504 89.256C20.2613 89.6547 19.9233 89.9753 19.49 90.218C19.074 90.4607 18.554 90.582 17.93 90.582C17.306 90.582 16.786 90.4607 16.37 90.218C15.954 89.9753 15.616 89.6547 15.356 89.256C15.1133 88.84 14.94 88.3807 14.836 87.878C14.732 87.358 14.68 86.8293 14.68 86.292ZM10.988 86.292C10.988 87.3667 11.1527 88.3373 11.482 89.204C11.8113 90.0707 12.2793 90.816 12.886 91.44C13.4927 92.0467 14.2207 92.5147 15.07 92.844C15.9193 93.1733 16.8727 93.338 17.93 93.338C18.9873 93.338 19.9407 93.1733 20.79 92.844C21.6567 92.5147 22.3933 92.0467 23 91.44C23.6067 90.816 24.0747 90.0707 24.404 89.204C24.7333 88.3373 24.898 87.3667 24.898 86.292C24.898 85.2173 24.7333 84.2467 24.404 83.38C24.0747 82.496 23.6067 81.7507 23 81.144C22.3933 80.52 21.6567 80.0433 20.79 79.714C19.9407 79.3673 18.9873 79.194 17.93 79.194C16.8727 79.194 15.9193 79.3673 15.07 79.714C14.2207 80.0433 13.4927 80.52 12.886 81.144C12.2793 81.7507 11.8113 82.496 11.482 83.38C11.1527 84.2467 10.988 85.2173 10.988 86.292ZM35.9825 82.028H31.7965V93H28.1045V82.028H25.8945V79.558H28.1045V78.518C28.1045 77.322 28.4772 76.3427 29.2225 75.58C29.9679 74.8173 31.0945 74.436 32.6025 74.436C32.9319 74.436 33.2612 74.4533 33.5905 74.488C33.9199 74.5053 34.2405 74.5227 34.5525 74.54V77.296C34.1019 77.244 33.6512 77.218 33.2005 77.218C32.6979 77.218 32.3339 77.3393 32.1085 77.582C31.9005 77.8073 31.7965 78.1973 31.7965 78.752V79.558H35.9825V78.518C35.9825 77.322 36.3552 76.3427 37.1005 75.58C37.8459 74.8173 38.9725 74.436 40.4805 74.436C40.8099 74.436 41.1392 74.4533 41.4685 74.488C41.7979 74.5053 42.1185 74.5227 42.4305 74.54V77.296C41.9799 77.244 41.5292 77.218 41.0785 77.218C40.5759 77.218 40.2119 77.3393 39.9865 77.582C39.7785 77.8073 39.6745 78.1973 39.6745 78.752V79.558H42.2225V82.028H39.6745V93H35.9825V82.028Z" fill="white"/>
<path d="M49.02 76.98V74.72H47.96V76.98L45.84 76.18L45.48 77.14L47.6 77.9L46.3 79.72L47.2 80.34L48.5 78.42L49.88 80.34L50.7 79.72L49.38 77.9L51.56 77.14L51.16 76.18L49.02 76.98Z" fill="white"/>
<defs>
<clipPath id="clip0_1558_387">
<rect width="184.25" height="109.79" fill="white" transform="translate(38 113)"/>
</clipPath>
</defs>
</svg>
